<svg version="1.1" id="Layer_1" xmlns:x="ns_extend;" xmlns:i="ns_ai;" xmlns:graph="ns_graphs;" xmlns="http://www.w3.org/2000/svg" xmlns:xlink="http://www.w3.org/1999/xlink" x="0px" y="0px" viewBox="0 0 275 92.7" style="enable-background:new 0 0 275 92.7;" xml:space="preserve">
 <style type="text/css">
  .st0{fill:#403C38;}
 </style>
 <metadata>
  <sfw xmlns="ns_sfw;">
   <slices>
   </slices>
   <sliceSourceBounds bottomLeftOrigin="true" height="92.7" width="275" x="62.5" y="-246.3">
   </sliceSourceBounds>
  </sfw>
 </metadata>
 <g>
  <path class="st0" d="M4.1,92V57.9h6.8l14.8,22.3V57.9h7.3V92h-6.8L11.4,69.7V92H4.1z">
  </path>
  <path class="st0" d="M39.7,92V57.9h22.3v6.3H47.2v7.5h13.5v6.3H47.2v8h15.2v5.8L39.7,92z">
  </path>
  <path class="st0" d="M76.5,92V63.9H66.3v-6h27.3v6.3H83.5V92H76.5z">
  </path>
  <path class="st0" d="M98.2,90.3v-3.9c3.1,1.5,6.5,2.2,9.9,2.2c2.2,0.2,4.4-0.5,6-1.5c1.5-1,2.2-2.7,2.2-4.4c0-1.2-0.5-2.4-1.5-3.4
		c-1.5-1.2-3.1-2.2-4.8-2.7l-3.6-1.5c-2.4-0.7-4.6-2.2-6.5-3.9C98.7,70,98,68.3,98,66.3c0-2.7,1.2-5.1,3.1-6.8
		c2.7-1.7,5.6-2.7,8.7-2.4c1.7,0,3.1,0.2,4.8,0.5c1.5,0.2,2.9,0.7,4.1,1.5v3.9c-2.7-1.2-5.8-1.9-8.7-2.2c-5.1,0-7.7,1.7-7.7,5.1
		c0,1.2,0.5,2.2,1.5,2.9c1.5,1.2,3.1,1.9,4.8,2.7l3.6,1.5c2.4,0.7,4.8,2.2,6.8,4.1c1.2,1.5,1.9,3.4,1.9,5.6c0.2,2.7-1,5.3-3.1,7
		c-2.7,1.9-5.8,2.7-9,2.7c-1.2,0-2.4,0-3.6-0.2c-1.2-0.2-2.4-0.5-3.6-0.7C99.9,91.2,98.9,90.8,98.2,90.3z">
  </path>
  <path class="st0" d="M126.3,76.5V57.9h4.4v18.6c0,4.1,0.7,7.3,2.2,9.2c3.4,3.6,9.2,4.1,12.8,0.7c0.2-0.2,0.5-0.5,0.7-0.7
		c1.5-1.9,2.2-5.1,2.2-9.2V57.9h4.4v18.9c0,5.6-1.2,9.4-3.4,12.1c-2.2,2.7-5.6,3.9-9.9,3.9s-7.7-1.2-9.9-3.9
		C127.5,86.2,126.3,82.1,126.3,76.5z">
  </path>
  <path class="st0" d="M160.1,92V57.9h4.4V92H160.1z">
  </path>
  <path class="st0" d="M181.2,92V61.5h-10.6v-3.6h25.9v3.6h-10.9v30.2h-4.4V92z">
  </path>
  <path class="st0" d="M202.2,92V57.9h21v3.6h-16.7v11.1h15.2v3.6h-15.2v11.6h17.2v3.6h-21.5L202.2,92L202.2,92z">
  </path>
  <path class="st0" d="M118.6,23.2h18.1l-9.5-15.5l-17.7,27.9h-8.1l21.5-33.4c1.7-2.4,4.8-2.9,7.2-1.2c0.5,0.2,1,0.5,1.2,1l21.5,33.6
		h-8.1l-3.8-6.2h-18.4L118.6,23.2 M201.8,29.4V0.3h-6.9v32c0,1,0.5,1.7,1,2.4c0.7,0.7,1.4,1,2.4,1h31l4.1-6.2L201.8,29.4 M89.5,24.1
		c6.7,0,11.9-5.2,11.9-11.9S96.1,0.3,89.5,0.3H59.6v35.3h6.9V6.5H89c3.1,0.2,5.5,2.9,5.5,6c-0.2,2.9-2.4,5.2-5.5,5.5H69.9l20.3,17.7
		h9.8L86.4,24.1L89.5,24.1 M17.9,35.6h20.5c9.8,0,17.7-7.9,17.7-17.7S48.2,0.3,38.4,0.3H17.9C8.1,0.3,0,8.1,0,17.9
		S8.1,35.6,17.9,35.6 M37.9,29.4H18.1c-6.2-0.2-11.2-5.5-11-11.9c0.2-6,5-10.7,11-11h19.8c6.2-0.2,11.7,4.8,11.9,11
		c0.2,6.2-4.8,11.7-11,11.9C38.4,29.4,38.2,29.4,37.9,29.4 M167,35.6h21l4.1-6.2h-24.6c-6.2,0.2-11.7-4.8-11.9-11
		c-0.2-6.2,4.8-11.7,11-11.9c0.2,0,0.5,0,0.7,0h20l4.1-6.2H167c-9.8,0-17.7,7.9-17.7,17.7S157.2,35.6,167,35.6 M250.2,29.4
		c-5,0-9.5-3.3-11-8.3h29.1l4.1-6.2h-33.2c1.4-5,6-8.3,11-8.3h20l4.1-6.2H250c-9.8,0-17.7,7.9-17.7,17.7s7.9,17.7,17.7,17.7l0,0h21
		l4.1-6.2L250.2,29.4">
  </path>
 </g>
</svg>