<?xml version="1.0" encoding="UTF-8"?>
<svg version="1.1" viewBox="0 0 2048 619" width="1200" height="363" xmlns="http://www.w3.org/2000/svg">
<path transform="translate(612,101)" d="m0 0 3 1-15 10-11 8-48 32-13 9-16 10-8 6-21 14-16 11-11 7-14 10-45 30-8 6-5 3-8 5h-2v2l-5 3-27 18h-2l3 10 52 130v2h-85l-19-49-15-39-2-7-6 3-10 7-9 6h-2l-1 2-4 3-7 4-8 6-5 3-13 9-11 7-8 6-5 3-22 15-42 28-5 4-5 3-5 4-7 4-4 3-5 3-4 2-1 2-7 4-4 2-8-16-14-30-9-20-8-16-13-28-19-41v-3h-3l1-4h14l14 11 11 9 19 14 13 11 19 14 12 9 7-2 10-6 6-3 2 1v-2l16-9 11-6 19-10 64-35 5-3 5-2 9-6-3-10-17-44v-2l-3 1-16 34-7 14-20 11-23 13-18 10-11 6-23 12-1-3 13-34 11-29 16-42 14-37 14-36 3-4h99l3 5 36 90 1 6 9-2 29-16 22-12 16-9 10-5 14-8 11-6 19-10 33-18 12-7 12-6 22-12 10-6 12-6 16-9 24-13z" fill="#E11C3D"/>
<path transform="translate(1726,153)" d="m0 0h86l1 1v132l1 2 8-7 12-13 22-24 7-7 7-9h99l2 2-8 7-13 13-8 7-10 10-8 7-15 14-13 13-2-1v3l-2 1 1 6 5 6 11 14 9 12 10 13 14 19 8 10 21 28 10 13 2 3h-105l-7-10-30-45-10-14-4 1-11 9-2 2-1 56-1 1h-87v-274z" fill="#61A9F2"/>
<path transform="translate(1332,223)" d="m0 0h52l24 3 17 4 15 6 11 8 5 4 7 11 5 16 1 8 1 21 1 109 4 6 6 6v3h-90l-4-18v-3l-6 4-14 9-15 7-21 5-21 2h-14l-18-2-17-5-14-7-4-4-7-6-7-10-4-10-2-10v-11l2-12 5-12 9-11 7-6 16-8 16-5 19-4 56-7 14-3 9-4 5-6v-10l-3-5-12-5-6-1h-15l-12 3-6 4-5 8-1 4h-84v-9l3-12 7-13 10-10 11-7 14-6 19-5zm48 117-14 4-35 8-10 5-5 6-2 5v8l4 6 5 4 8 3h22l11-4 8-6 7-11 3-14v-14z" fill="#61A9F2"/>
<path transform="translate(915,223)" d="m0 0h37l25 4 17 5 19 9 13 9 7 6 7 8 7 9 7 14 5 16 2 12v24l-3 18-5 14-9 17-4 5-7 8-11 9-15 9-14 6-18 5-19 3-14 1h-14l-23-2-22-5-14-5-19-10-11-9-5-6-5-4-7-10-7-14-4-13-2-10-1-11v-10l2-17 4-16 9-19 10-13 9-9 13-9 15-8 18-6 14-3zm11 53-10 4-8 7-7 11-4 14-1 8v14l2 14 5 15 7 9 9 6 9 3h14l11-4 8-6 6-9 4-10 2-11v-26l-4-16-7-12-8-7-9-4z" fill="#61A9F2"/>
<path transform="translate(542,228)" d="m0 0h72l14 1v199h-81v-29l-17 17-13 8-11 5-12 3-21 2h-13l-21-3-16-6-11-8-10-10-6-10-5-12-3-11-2-19v-61l26-17 30-20 26-17 6-4 1 113 3 10 4 6 5 4 9 3h21l9-4 6-5 5-11 2-9 1-9 1-105z" fill="#61A9F2"/>
<path transform="translate(1572,223)" d="m0 0h41l23 3 19 5 16 7 10 7 10 10 8 16 2 8v6h-78l-5-10-1-3-5-2-5-3-5-1h-16l-10 3-5 5-1 8 4 6 12 5 21 5 39 8 27 9 15 8 10 9 5 6 5 10 2 7v19l-3 11-6 12-11 12-9 6-16 8-21 6-17 3-27 2h-17l-25-2-19-4-13-4-16-8-8-6-12-12-7-14-3-10v-7h82l4 11 6 7 12 5 6 1h10l13-3 6-4 3-6v-9l-2-4-8-5-12-4-48-9-21-6-15-6-11-7-11-11-6-13-2-9v-12l4-16 5-9 9-10 9-7 16-8 15-5 14-3z" fill="#61A9F2"/>
<path transform="translate(1170,167)" d="m0 0h1l1 61h41l1 1v43l-1 1h-42l1 83 3 9 5 4 6 2 21 1h6v56l-11 1-23 1h-28l-23-2-16-4-12-6-8-9-4-8-3-13-1-11v-104h-32v-44l1-1 33-1 34-24 36-26z" fill="#61A9F2"/>
<path transform="translate(759,167)" d="m0 0 2 1v60h39l3 1v44h-43l1 78 2 12 4 5 9 3 14 1h12v56l-9 1-26 1h-27l-23-2-16-4-10-5-7-6-7-14-3-16-1-14v-96h-31v-45l34-1 9-7 11-7 13-10 19-13 19-14z" fill="#61A9F2"/>
<path transform="translate(186,153)" d="m0 0h99l3 5 36 90 2 8-26 14-23 13-17 9-3-1-20-52v-2l-3 1-16 34-7 14-20 11-23 13-18 10-11 6-23 12-1-3 13-34 11-29 16-42 14-37 14-36z" fill="#61A9F2"/>
<path transform="translate(338,289)" d="m0 0h2l11 27 44 110v2h-85l-19-49-15-39-2-5v-3l54-36z" fill="#61A9F2"/>
<path transform="translate(2010,227)" d="m0 0h10l11 4 8 6 6 10 1 4h2v16l-3 4-5 9-7 6-9 4-4 1h-12l-9-4-6-4-5-6-5-12v-11l4-11 6-8 10-6zm3 4-9 2-9 6-6 9-2 8 1 11 5 10 9 7 8 3h9l9-3 6-4 5-6 4-11v-8l-4-11-5-6-9-5-8-2z" fill="#61A9F2"/>
<path transform="translate(2e3 242)" d="m0 0h19l6 3 1 2v9l-4 4-3 2 9 12 1 3h-7l-6-10-3-4-8-1v15h-5l-1-34zm6 4-1 1v10l1 1h8l5-2 2-2-1-6-4-2z" fill="#61A9F2"/>
<path transform="translate(1243,416)" d="m0 0" fill="#fff"/>
<path transform="translate(837,401)" d="m0 0" fill="#fff"/>
<path transform="translate(836,400)" d="m0 0" fill="#fff"/>
<path transform="translate(835,399)" d="m0 0" fill="#fff"/>
<path transform="translate(834,398)" d="m0 0" fill="#fff"/>
<path transform="translate(114,338)" d="m0 0" fill="#61A9F2"/>
<path transform="translate(1894,301)" d="m0 0" fill="#fff"/>
</svg>
