<?xml version="1.0" encoding="UTF-8"?>
<svg id="katman_1" xmlns="http://www.w3.org/2000/svg" version="1.1" viewBox="0 0 841.9 595.3">
  <!-- Generator: Adobe Illustrator 29.3.1, SVG Export Plug-In . SVG Version: 2.1.0 Build 151)  -->
  <defs>
    <style>
      .st0 {
        fill: #1c2c17;
      }

      .st1 {
        fill: #2c9382;
      }

      .st2 {
        fill: #f25e30;
      }
    </style>
  </defs>
  <path class="st0" d="M224.8,356.7v-29.6c-2.8,4-8.8,6.6-16.8,6.6-18.3,0-31.7-14.1-31.7-33.6s12.6-33.4,30.9-33.4,16.6,5.2,18,7.9v-6.3h18.7v88.5h-19.3ZM210.6,316.1c7.6,0,14.4-5.3,14.4-16s-6.8-15.9-14.4-15.9-14.4,5.2-14.4,15.9,6.8,16,14.4,16ZM301.2,325.8c-3.3,5.5-10.7,7.9-17.1,7.9-15.6,0-24.4-11.3-24.4-25v-40.5h19.6v36.3c0,6.2,3.4,11.1,10.3,11.1s10.7-4.5,10.7-11v-36.5h19.6v52.6c0,3.8.2,7.7.6,11.5h-18.8c-.3-2.1-.5-4.3-.5-6.4h0ZM336.4,332.2v-64.1h19.6v64.1h-19.6ZM387.2,300.2c0,10.2,6.8,15.9,15,15.9s11.9-4.8,13.3-9.5l17.3,5.3c-2.8,11.2-13.4,22.3-30.5,22.3s-34.4-14-34.4-33.9,14.9-34,33.8-34,28,10.8,30.8,22.3l-17.5,5.3c-1.4-4.9-5.3-9.5-12.9-9.5-8.1,0-14.7,5.6-14.7,15.9ZM483.3,295.1l25.5,37.1h-24l-15.1-22.6-6.3,6.8v15.7h-19.6v-93.3h19.6v50.8l19.5-21.5h25.4l-25,26.9ZM517.3,332.2v-93.3h19.2v35.3c2.7-4,9.8-7.6,18.6-7.6,18.6,0,29.8,14.2,29.8,33.4s-12.6,33.6-30.5,33.6-15.1-3.7-18-8.6v7.2h-18.9ZM550.8,284.3c-7.6,0-14.6,5-14.6,15.9s7,16,14.6,16,14.4-5.3,14.4-16-6.8-15.9-14.4-15.9ZM611.8,295.2l15.1-2.3c3.5-.5,4.6-2.2,4.6-4.4,0-3.7-3.3-7-9.4-7s-10.6,4.6-10.9,9.4l-17-3.5c.8-9.2,9.3-21.3,28.1-21.3s28.4,11.6,28.4,24.7v31.3c0,3.3.3,6.6.8,9.9h-17.7c-.5-2.4-.7-4.8-.6-7.2-3.3,5.4-9.5,9.1-18,9.1-14,0-22.2-9.3-22.2-19.5s8.4-17.8,19-19.4ZM631.6,307.1v-2.8l-12.1,1.9c-4.1.6-7.2,2.6-7.2,7.1s2.2,6.6,7.6,6.6,11.7-2.8,11.7-12.8h0ZM677.7,311.1c.3,4.4,3.3,8.6,10,8.6s7.5-2.7,7.5-5.5-1.5-4.3-6.3-5.3l-7.3-1.6c-13.7-3-19.1-10.7-19.1-19.7s10.3-21.3,24.6-21.3,25,11.6,25.7,19.1l-16.2,2.9c-.5-4.2-3.3-7.9-9.2-7.9s-7,2.2-7,5.5,2.2,4.2,5,4.8l8.5,1.7c13.3,2.7,19.7,10.7,19.7,20.1s-8.4,21.6-25.5,21.6-26.5-13-27.1-20.1l16.7-3ZM783.7,313.8c-3.1,11.1-13.3,20.4-29.5,20.4s-33.4-12.6-33.4-34.2,15.3-33.8,32-33.8,32.1,12.2,32.1,32.9c0,2-.1,4.1-.4,6.1h-44.6c.4,7.2,7,12.4,14.6,12.4s11.1-3.3,12.9-8.4l16.4,4.6ZM765.9,292.5c-.3-4.9-3.6-10.8-12.9-10.8s-12.4,6.1-12.8,10.8h25.6ZM336.5,238.9h19.5v19.5h-19.5v-19.5Z"/>
  <path class="st1" d="M146.1,238.8v59.1h-29.6v-29.6h-29.5v-29.6h59.1Z"/>
  <path class="st0" d="M116.6,297.9v29.5h-59.1v-59.1h29.6v29.6h29.5Z"/>
  <path class="st2" d="M116.6,327.4h29.6v29.6h-29.6v-29.6Z"/>
</svg>