<svg aria-labelledby="datto-logo" class="img-fluid w-100 h-auto" id="Layer_2" style="max-width: 100px;" viewBox="0 0 295.04 136.176" xmlns="http://www.w3.org/2000/svg"><title id="datto-logo">RMM Software &amp; Backup Solutions</title><defs><style>.cls-1{fill:#0580c2;}.cls-2{fill:#545758;}</style></defs><g id="logos"><g id="logos-2"><g><g><path class="cls-1" d="M48.117,.058V31.751c-5.59-4.725-10.776-6.742-17.864-6.742C12.389,25.009,0,39.531,0,60.564c0,21.148,12.678,36.131,30.657,36.131,6.742,0,12.678-2.305,17.403-6.915v5.302h14.522V0l-14.464,.058h0Zm-1.614,73.587c-2.017,5.302-7.895,9.047-14.406,9.047-10.257,0-16.827-8.471-16.827-21.609,0-13.657,6.627-22.186,17.288-22.186,6.454,0,12.678,4.034,14.233,9.335,.864,2.593,1.153,6.166,1.153,13.542,0,5.82-.403,9.451-1.441,11.871Z"></path><path class="cls-1" d="M126.948,72.089v-25.24c0-8.183-.864-11.352-4.437-15.098-4.149-4.495-11.813-6.915-21.321-6.915-9.623,0-19.304,2.305-28.64,7.03l6.051,11.64c9.623-4.149,14.406-5.302,21.033-5.302,8.932,0,12.562,3.169,12.678,10.949v2.19c-11.64,1.153-15.559,1.614-20.169,2.42-14.694,2.881-21.609,9.335-21.609,20.284,0,12.966,11.237,22.762,26.047,22.762,7.895,0,14.118-2.881,18.555-8.471,1.441,4.725,5.302,7.607,11.813,8.471l7.376-11.237c-6.685-2.708-7.376-4.149-7.376-13.484h-.001Zm-14.694,1.269c0,4.034-.576,5.59-2.593,7.318-2.593,2.305-7.03,3.919-10.776,3.919-7.03,0-12.85-4.61-12.85-10.257,0-4.61,3.054-7.318,9.796-8.932,4.495-1.037,8.183-1.441,16.423-2.305v10.257Z"></path><path class="cls-1" d="M159.449,71.513c0,8.471,1.729,10.488,8.932,10.488,2.42,0,5.186-.288,8.183-.864l1.844,12.793c-4.725,1.268-10.084,2.017-14.694,2.017-13.542,0-18.843-5.59-18.843-19.593V38.897h-12.505v-12.505h12.505V5.244L159.391,.058V26.392h18.094v12.505h-18.037v32.616h.001Z"></path><path class="cls-1" d="M209.64,71.513c0,8.471,1.729,10.488,8.932,10.488,2.42,0,5.186-.288,8.183-.864l1.844,12.793c-4.725,1.268-10.084,2.017-14.694,2.017-13.542,0-18.843-5.59-18.843-19.593V38.897h-12.505v-12.505h12.505V5.244L209.583,.058V26.392h18.037v12.505h-18.037l.058,32.616h0Z"></path><path class="cls-1" d="M261.33,24.664c-19.132,0-31.982,14.579-31.982,36.419,0,21.148,13.542,35.843,33.134,35.843,19.189,0,32.558-14.81,32.558-35.843,0-21.552-13.657-36.419-33.711-36.419h.001Zm.576,58.086c-10.661,0-17.691-8.759-17.691-21.898s7.203-22.186,17.864-22.186c10.373,0,17.288,8.817,17.288,22.186,0,13.081-7.088,21.898-17.46,21.898h-.001Z"></path></g><g><path class="cls-2" d="M38.824,127.986h-1.93c-.223,0-.403-.061-.541-.183s-.24-.277-.309-.467l-1.725-4.89h-8.274l-1.725,4.89c-.06,.169-.163,.321-.309,.453s-.326,.197-.541,.197h-1.93l7.374-20.254h2.535l7.374,20.254Zm-12.084-7.519h6.884l-2.896-8.24c-.188-.508-.374-1.144-.553-1.908-.094,.386-.185,.742-.275,1.067s-.179,.611-.264,.855l-2.896,8.226h.001Z"></path><g><path class="cls-2" d="M48.068,101.812h5.23v11.197l9.414-11.197h6.429l-10.725,12.293,11.162,13.771h-6.828l-9.369-12.102h-.083v12.102h-5.23v-26.064h-.001Z"></path><path class="cls-2" d="M71.614,109.652c1.929-.901,4.545-1.455,6.67-1.455,5.864,0,8.298,2.438,8.298,8.103v2.472c0,1.941,.038,3.396,.068,4.813,.046,1.458,.122,2.8,.234,4.293h-4.402c-.188-1.007-.188-2.276-.234-2.868h-.075c-1.153,2.126-3.656,3.316-5.932,3.316-3.407,0-6.731-2.047-6.731-5.706,0-2.887,1.386-4.564,3.286-5.49,1.907-.939,4.38-1.13,6.467-1.13h2.758c0-3.098-1.378-4.142-4.326-4.142-2.133,0-4.258,.825-5.939,2.099l-.143-4.304h0Zm5.856,15.013c1.53,0,2.728-.671,3.513-1.714,.821-1.081,1.04-2.465,1.04-3.96h-2.163c-2.238,0-5.569,.373-5.569,3.319,0,1.648,1.387,2.355,3.181,2.355h-.001Z"></path><path class="cls-2" d="M101.454,112.682c-1.537-.524-2.668-.825-4.484-.825-1.35,0-2.963,.49-2.963,2.138,0,3.056,8.714,1.119,8.714,8.065,0,4.478-4.002,6.267-8.066,6.267-1.922,0-3.851-.328-5.683-.818l.302-4.108c1.568,.788,3.211,1.267,4.929,1.267,1.267,0,3.286-.479,3.286-2.355,0-3.768-8.697-1.191-8.697-8.132,0-4.154,3.618-5.982,7.537-5.982,2.358,0,3.881,.37,5.457,.709l-.332,3.776Z"></path><path class="cls-2" d="M120.787,126.796c-1.824,1.01-3.919,1.53-6.61,1.53-6.347,0-10.047-3.66-10.047-9.964,0-5.578,2.955-10.165,8.931-10.165,7.123,0,9.165,4.888,9.165,11.619h-13.311c.234,3.086,2.397,4.85,5.495,4.85,2.427,0,4.522-.893,6.377-1.941v4.07h.001Zm-3.354-10.423c-.144-2.415-1.259-4.515-4.063-4.515s-4.221,1.948-4.455,4.515h8.517Z"></path><path class="cls-2" d="M132.229,122.691h.076l4.628-14.049h5.08l-7.214,19.088c-1.605,4.258-2.758,8.445-7.997,8.445-1.184,0-2.39-.188-3.542-.524l.332-3.697c.633,.226,1.349,.332,2.585,.332,2.012,0,3.24-1.375,3.24-3.434l-7.356-20.211h5.525l4.643,14.049h-.001Z"></path><path class="cls-2" d="M143.286,109.652c1.937-.901,4.545-1.455,6.677-1.455,5.864,0,8.298,2.438,8.298,8.103v2.472c0,1.941,.037,3.396,.068,4.813,.037,1.458,.112,2.8,.226,4.293h-4.402c-.195-1.007-.195-2.276-.234-2.868h-.068c-1.16,2.126-3.664,3.316-5.932,3.316-3.415,0-6.739-2.047-6.739-5.706,0-2.887,1.387-4.564,3.294-5.49,1.907-.939,4.372-1.13,6.467-1.13h2.758c0-3.098-1.379-4.142-4.326-4.142-2.149,0-4.266,.825-5.94,2.099l-.15-4.304h.002Zm5.864,15.013c1.53,0,2.72-.671,3.505-1.714,.821-1.081,1.048-2.465,1.048-3.96h-2.163c-2.246,0-5.578,.373-5.578,3.319,0,1.648,1.394,2.355,3.189,2.355h-.001Z"></path></g><g><path class="cls-2" d="M181.408,123.802c.138,0,.261,.061,.374,.184l.978,1.173c-.755,.961-1.671,1.71-2.747,2.248-1.076,.537-2.375,.805-3.893,.805-1.33,0-2.535-.252-3.615-.756s-2.003-1.211-2.766-2.12-1.356-2-1.776-3.272c-.42-1.272-.631-2.67-.631-4.197s.225-2.925,.675-4.197,1.084-2.364,1.899-3.279c.815-.913,1.791-1.622,2.928-2.127,1.136-.504,2.391-.756,3.763-.756,1.356,0,2.524,.231,3.507,.692,.982,.462,1.855,1.089,2.619,1.88l-.811,1.258c-.06,.094-.129,.171-.206,.233-.077,.062-.188,.092-.334,.092-.111,0-.23-.045-.353-.134-.125-.09-.272-.2-.444-.332s-.374-.273-.605-.423c-.232-.151-.506-.292-.823-.424-.317-.131-.687-.242-1.107-.331-.42-.09-.905-.134-1.454-.134-.986,0-1.89,.185-2.708,.558-.819,.373-1.525,.902-2.117,1.591-.592,.688-1.053,1.526-1.383,2.515-.33,.99-.495,2.097-.495,3.321,0,1.264,.165,2.389,.495,3.378,.33,.988,.781,1.826,1.351,2.508s1.247,1.204,2.027,1.561c.78,.358,1.62,.538,2.521,.538,.549,0,1.042-.035,1.48-.106s.843-.181,1.216-.331c.374-.151,.721-.342,1.042-.573s.646-.506,.972-.827c.146-.142,.288-.213,.424-.213l-.003-.002Z"></path><path class="cls-2" d="M203.169,117.866c0,1.518-.219,2.909-.656,4.177-.437,1.267-1.055,2.357-1.853,3.271-.798,.914-1.757,1.623-2.876,2.128-1.12,.504-2.357,.756-3.713,.756s-2.591-.252-3.705-.756c-1.115-.504-2.072-1.213-2.87-2.128-.798-.913-1.416-2.004-1.853-3.271-.437-1.268-.656-2.66-.656-4.177s.219-2.908,.656-4.176c.437-1.267,1.055-2.36,1.853-3.279,.798-.919,1.755-1.632,2.87-2.142,1.114-.508,2.349-.763,3.705-.763s2.593,.254,3.713,.763c1.12,.509,2.079,1.222,2.876,2.142,.798,.918,1.416,2.012,1.853,3.279,.437,1.268,.656,2.66,.656,4.176Zm-2.561,0c0-1.242-.155-2.359-.464-3.35-.309-.988-.746-1.826-1.312-2.508s-1.253-1.209-2.059-1.576c-.806-.368-1.707-.551-2.703-.551-.986,0-1.883,.183-2.689,.551-.806,.367-1.495,.892-2.066,1.576s-1.011,1.52-1.319,2.508c-.309,.99-.464,2.106-.464,3.35s.155,2.358,.464,3.343,.748,1.819,1.319,2.502c.57,.684,1.259,1.205,2.066,1.568,.805,.364,1.702,.545,2.689,.545,.995,0,1.896-.181,2.703-.545,.806-.363,1.493-.885,2.059-1.568,.566-.684,1.004-1.518,1.312-2.502,.309-.984,.464-2.099,.464-3.343Z"></path><path class="cls-2" d="M215.967,121.379c.09,.25,.178,.502,.264,.756,.086-.264,.176-.515,.27-.756s.202-.483,.322-.728l6.242-12.451c.111-.217,.228-.348,.347-.396,.121-.047,.292-.071,.514-.071h1.84v20.254h-2.188v-14.883c0-.197,.004-.41,.013-.636s.021-.457,.038-.693l-6.319,12.664c-.215,.424-.514,.636-.901,.636h-.36c-.386,0-.687-.212-.901-.636l-6.46-12.705c.025,.244,.045,.486,.058,.721,.013,.236,.019,.453,.019,.65v14.883h-2.188v-20.254h1.84c.223,0,.395,.024,.514,.071,.121,.048,.236,.179,.347,.396l6.369,12.466c.121,.225,.225,.464,.315,.713h.003Z"></path><path class="cls-2" d="M232.999,120.41v7.575h-2.484v-20.254h5.444c1.166,0,2.18,.149,3.043,.447,.863,.296,1.577,.719,2.143,1.265,.566,.547,.988,1.206,1.268,1.979s.418,1.634,.418,2.587c0,.942-.15,1.803-.451,2.585-.301,.783-.74,1.456-1.319,2.021-.579,.565-1.297,1.006-2.156,1.321-.858,.315-1.84,.473-2.946,.473h-2.96Zm0-2.176h2.96c.711,0,1.34-.104,1.884-.311s1.001-.496,1.371-.869,.648-.818,.836-1.337,.284-1.089,.284-1.709c0-1.291-.363-2.3-1.088-3.026-.725-.725-1.821-1.088-3.287-1.088h-2.96v8.338h-.001Z"></path><path class="cls-2" d="M259.38,127.986h-1.93c-.223,0-.403-.061-.541-.183s-.24-.277-.309-.467l-1.725-4.89h-8.274l-1.725,4.89c-.06,.169-.163,.321-.309,.453s-.326,.197-.541,.197h-1.93l7.374-20.254h2.535l7.374,20.254Zm-12.084-7.519h6.884l-2.896-8.24c-.188-.508-.374-1.144-.553-1.908-.094,.386-.185,.742-.275,1.067s-.179,.611-.264,.855l-2.896,8.226h.001Z"></path><path class="cls-2" d="M263.491,107.825c.107,.061,.23,.186,.367,.375l10.68,15.264c-.025-.244-.043-.483-.052-.714-.008-.231-.013-.454-.013-.671v-14.345h2.188v20.254h-1.261c-.197,0-.363-.037-.495-.112-.133-.076-.264-.203-.393-.382l-10.668-15.25c.017,.236,.03,.467,.038,.693s.013,.433,.013,.622v14.43h-2.188v-20.254h1.287c.223,0,.388,.031,.495,.092h.001Z"></path><path class="cls-2" d="M288.271,119.93v8.056h-2.483v-8.056l-6.756-12.197h2.188c.223,0,.399,.062,.528,.184s.24,.273,.334,.452l4.222,7.873c.17,.329,.315,.64,.431,.933,.115,.292,.22,.579,.315,.861,.093-.292,.196-.583,.309-.876,.11-.292,.252-.597,.423-.918l4.208-7.873c.077-.15,.182-.294,.315-.43,.133-.138,.307-.206,.522-.206h2.214l-6.769,12.197h0Z"></path></g></g></g></g></g></svg>