<svg version="1.1" id="Layer_1" xmlns="http://www.w3.org/2000/svg" xmlns:xlink="http://www.w3.org/1999/xlink" x="0px" y="0px" viewBox="0 0 122 56.7" style="enable-background:new 0 0 122 56.7;" xml:space="preserve">
 <style type="text/css">
  .st0{fill:#8427E2;}
	.st1{clip-path:url(#SVGID_2_);fill:url(#SVGID_3_);}
 </style>
 <g>
  <g>
   <path class="st0" d="M103.1,35.5c0.4,0,0.6,0.2,0.7,0.7c0.8,2.7,3.3,4.1,6.2,4.1c2.8,0,4.9-1.3,4.9-3.5c0-1.9-1.3-3.2-4.6-4.2
			l-3.7-1.1c-5.5-1.6-9.1-5-9.1-10.3c0-6.4,4.7-10.3,11.7-10.3c7,0,11.4,4.7,12.1,9.6c0.1,0.5-0.3,1-0.9,1h-5.5
			c-0.5,0-0.7-0.2-0.8-0.6c-1-2.6-3-3.4-4.9-3.4c-2.5,0-4.5,1.2-4.5,3.2c0,2.2,1.5,3.3,4.4,4.2L113,26c5.7,1.6,9,5.1,9,10.5
			c0,5.9-4.8,10.3-12.1,10.3c-7.9,0-12.5-5-13.3-10.4c-0.1-0.5,0.4-1,0.9-1H103.1z M75.4,11.4h19.4c0.5,0,0.9,0.4,0.9,0.9v5
			c0,0.5-0.4,0.9-0.9,0.9H81.6v7.2h10.1c0.5,0,0.9,0.4,0.9,0.9v5c0,0.5-0.4,0.9-0.9,0.9H81.6v13.2c0,0.5-0.4,0.9-0.9,0.9h-5.3
			c-0.5,0-0.9-0.4-0.9-0.9V12.3C74.5,11.8,74.8,11.4,75.4,11.4 M64.6,11.4H70c0.5,0,0.9,0.4,0.9,0.9v33.1c0,0.5-0.4,0.9-0.9,0.9
			h-5.3c-0.5,0-0.9-0.4-0.9-0.9V12.3C63.7,11.8,64.1,11.4,64.6,11.4">
   </path>
  </g>
  <g>
   <defs>
    <path id="SVGID_1_" d="M41.5,39.2c-0.1,0.1-0.1,0.3,0,0.5l6.1,7.2c0.5,0.6,1.5,0.5,2.1-0.1c0.5-0.6,0.6-1.6-0.1-2.1L42,39.1
				c-0.1-0.1-0.2-0.1-0.2-0.1C41.7,39.1,41.6,39.1,41.5,39.2 M36.3,38.5C36.1,38.6,36,38.8,36,39l3.3,13.6c0.2,0.8,1.1,1.2,1.9,0.9
				c0.8-0.3,1.3-1.1,1-1.9l-5.4-12.9c-0.1-0.1-0.2-0.2-0.3-0.2C36.3,38.5,36.3,38.5,36.3,38.5 M47.8,37.5c-0.1,0.2,0.1,0.3,0.2,0.4
				l4.8,2.2c0.6,0.3,1.3-0.2,1.5-0.9c0.2-0.6-0.2-1.4-0.8-1.5l-5.3-0.5c0,0,0,0-0.1,0C48,37.3,47.9,37.4,47.8,37.5 M39.2,35.7
				c-0.1,0.2,0,0.4,0.1,0.5l11.3,7.4c0.6,0.4,1.4,0.1,1.8-0.5s0.2-1.5-0.5-1.8l-12.3-5.7c-0.1,0-0.1,0-0.2,0
				C39.4,35.5,39.3,35.6,39.2,35.7 M31.6,35.3l-5.4,19.2c-0.3,1,0.4,1.9,1.4,2.1c0.1,0,0.2,0,0.4,0H28c0.8,0,1.6-0.6,1.7-1.4
				l2.7-19.7c0-0.2-0.1-0.5-0.3-0.5c0,0-0.1,0-0.1,0C31.8,35,31.6,35.1,31.6,35.3 M36,34.3c-0.2,0.1-0.2,0.3-0.1,0.5L43.9,50
				c0.4,0.7,1.3,0.9,2,0.5c0.7-0.4,1-1.4,0.5-2l-10-14c-0.1-0.1-0.2-0.2-0.3-0.2C36.1,34.2,36.1,34.2,36,34.3 M54.5,34.1l-11.2,0.8
				c-0.2,0-0.3,0.2-0.3,0.3c0,0.2,0.2,0.3,0.3,0.3l11.2,0.9c0.7,0.1,1.2-0.5,1.2-1.2C55.7,34.7,55.2,34.1,54.5,34.1
				C54.6,34.1,54.5,34.1,54.5,34.1 M33.9,31.5c-0.2,0-0.4,0.2-0.4,0.4l-0.1,22.4c0,0.9,0.8,1.6,1.7,1.5c0.9,0,1.6-0.8,1.5-1.7
				l-2.4-22.2C34.3,31.6,34.1,31.5,33.9,31.5C33.9,31.5,33.9,31.5,33.9,31.5 M55.1,30.8l-4.8,1.8c-0.2,0.1-0.3,0.2-0.3,0.4
				c0,0.2,0.2,0.3,0.4,0.3l5.1-0.4c0.6,0,0.9-0.7,0.8-1.3c-0.1-0.5-0.5-0.9-1-0.9C55.3,30.7,55.2,30.7,55.1,30.8 M28.6,30.8
				L10.3,47.3c-0.9,0.8-0.8,2.2,0.1,3.1c0.9,0.8,2.3,0.9,3.1-0.1l15.9-18.9c0.2-0.2,0.2-0.5,0-0.7c-0.1-0.1-0.2-0.1-0.3-0.1
				C28.9,30.6,28.7,30.7,28.6,30.8 M32.7,28.3L17.8,52.1c-0.6,1-0.2,2.4,0.9,2.9c1,0.6,2.4,0.2,2.9-0.9l12-25.4
				c0.1-0.2,0-0.5-0.2-0.7c-0.1,0-0.2-0.1-0.2-0.1C33,28,32.8,28.1,32.7,28.3 M54.9,26.7l-8.6,5.5c-0.2,0.1-0.2,0.3-0.1,0.5
				c0.1,0.2,0.3,0.2,0.5,0.1l9.4-3.9c0.6-0.3,0.8-1,0.5-1.6c-0.2-0.4-0.7-0.7-1.1-0.7C55.2,26.6,55,26.6,54.9,26.7 M28.3,24.6
				L1.8,29.9C0.7,30.1,0,31.2,0,32.3v0c0,0.2,0,0.4,0.1,0.7c0.4,1.3,1.8,2.2,3,1.7l25.5-8.9c0.3-0.1,0.5-0.4,0.4-0.8
				c-0.1-0.3-0.3-0.5-0.6-0.5C28.4,24.5,28.3,24.5,28.3,24.6 M33.9,24.2L4.6,39.5c-1.2,0.6-1.6,2.2-0.9,3.4s2.3,1.6,3.4,0.9l0,0
				l27.3-18.4c0.3-0.2,0.4-0.6,0.2-0.9c-0.1-0.2-0.3-0.3-0.5-0.3C34.1,24.1,34,24.2,33.9,24.2 M54.1,22.5l-3,4.3
				c-0.1,0.2-0.1,0.4,0,0.5c0.1,0.1,0.3,0.1,0.5,0l4.3-3.1c0.5-0.4,0.5-1.2,0-1.7c-0.2-0.2-0.6-0.4-0.9-0.4
				C54.6,22.1,54.3,22.2,54.1,22.5 M0.4,22.3c0,1.4,1.1,2.6,2.5,2.5l34.3-2c0.4,0,0.6-0.3,0.6-0.6c0-0.4-0.3-0.6-0.6-0.6L2.9,19.8
				c0,0-0.1,0-0.1,0C1.5,19.8,0.4,21,0.4,22.3 M52.5,17.5l-5.4,11.7c-0.1,0.2,0,0.4,0.1,0.5c0.2,0.1,0.4,0,0.5-0.1l6.9-10.9
				c0.4-0.6,0.1-1.3-0.5-1.6c-0.2-0.1-0.4-0.2-0.6-0.2C53,16.9,52.6,17.1,52.5,17.5 M49.8,12.9L48.6,21c0,0.2,0.1,0.4,0.2,0.4
				c0.2,0,0.4-0.1,0.4-0.2l2.8-7.6c0.2-0.6-0.2-1.3-0.9-1.5c-0.1,0-0.2,0-0.3,0C50.3,12.1,49.8,12.4,49.8,12.9 M4.7,12.5
				c-0.4,1.3,0.4,2.8,1.8,3L32,20.3c0.3,0.1,0.6-0.1,0.7-0.4c0.1-0.3-0.1-0.6-0.4-0.7L7.8,10.7c-0.2-0.1-0.5-0.1-0.7-0.1
				C6,10.6,5,11.4,4.7,12.5 M46.6,7c-0.7,0-1.2,0.5-1.2,1.2l1,17.7c0,0.2,0.2,0.3,0.3,0.3c0.2,0,0.3-0.2,0.3-0.3l0.7-17.7
				C47.9,7.5,47.3,7,46.6,7C46.6,7,46.6,7,46.6,7 M11.8,5.2c-0.6,1-0.2,2.3,0.8,2.8l28,14.1c0.3,0.1,0.6,0.1,0.7-0.2
				c0.1-0.3,0-0.6-0.2-0.7L14.6,4.4c-0.3-0.2-0.7-0.3-1-0.3C12.9,4.2,12.2,4.6,11.8,5.2 M39.6,2.6c-0.8,0.2-1.3,1.1-1,1.9l5.8,15.6
				c0.1,0.2,0.3,0.3,0.5,0.3c0.2-0.1,0.3-0.3,0.3-0.5L41.5,3.6c-0.1-0.7-0.8-1.1-1.4-1.1C39.9,2.5,39.7,2.5,39.6,2.6 M20.9,1.1
				c-0.7,0.7-0.7,2,0.1,2.7l17.2,14.5c0.2,0.2,0.5,0.2,0.7,0c0.2-0.2,0.2-0.5,0-0.7L23.5,1c-0.3-0.4-0.8-0.5-1.3-0.5
				C21.8,0.5,21.2,0.7,20.9,1.1 M30.5,0.3c-0.8,0.5-1.2,1.6-0.6,2.5l14,20.4c0.1,0.2,0.4,0.3,0.7,0.2c0.2-0.1,0.3-0.4,0.2-0.7
				L33,0.9C32.7,0.3,32.1,0,31.5,0C31.2,0,30.8,0.1,30.5,0.3">
    </path>
   </defs>
   <clipPath id="SVGID_2_">
    <use href="#SVGID_1_" style="overflow:visible;">
    </use>
   </clipPath>
   <radialGradient id="SVGID_3_" cx="-239.0016" cy="418.6104" r="1" gradientTransform="matrix(47.2392 0 0 -47.2392 11328.1035 19804.4434)" gradientUnits="userSpaceOnUse">
    <stop offset="0" style="stop-color:#72C9F8">
    </stop>
    <stop offset="0.15" style="stop-color:#72C9F8">
    </stop>
    <stop offset="0.2008" style="stop-color:#75AEF4">
    </stop>
    <stop offset="0.3033" style="stop-color:#7A7EEE">
    </stop>
    <stop offset="0.4007" style="stop-color:#7F58E9">
    </stop>
    <stop offset="0.4904" style="stop-color:#823DE5">
    </stop>
    <stop offset="0.5696" style="stop-color:#832DE3">
    </stop>
    <stop offset="0.63" style="stop-color:#8427E2">
    </stop>
    <stop offset="1" style="stop-color:#8427E2">
    </stop>
   </radialGradient>
   <rect x="0" y="0" class="st1" width="56.8" height="56.7">
   </rect>
  </g>
 </g>
</svg>