<?xml version="1.0" encoding="utf-8"?>
<!-- Generator: Adobe Illustrator 26.0.3, SVG Export Plug-In . SVG Version: 6.00 Build 0)  -->
<svg xmlns="http://www.w3.org/2000/svg" xmlns:xlink="http://www.w3.org/1999/xlink" version="1.1" id="Layer_1" x="0px" y="0px" viewBox="44.30000305175781 44.75857925415039 90.70001220703125 88.44140625" style="enable-background:new 0 0 180 180;" xml:space="preserve">
<style type="text/css">
	.st0{fill:#327DBA;}
	.st1{fill:#6AB4E5;}
	.st2{fill:#1D6799;}
	.st3{fill:#F7BC37;}
	.st4{fill:#29ABE2;}
	.st5{fill:#FFFFFF;}
	.st6{fill:#1611D3;}
	.st7{fill:#0D00A0;}
	.st8{fill:#FF0000;}
	.st9{fill:#D80000;}
	.st10{clip-path:url(#SVGID_00000098905682351265942210000000056836253601106071_);fill:#FF4D4D;}
	.st11{clip-path:url(#SVGID_00000098905682351265942210000000056836253601106071_);fill:#FF4E4E;}
	.st12{clip-path:url(#SVGID_00000098905682351265942210000000056836253601106071_);fill:#FF4F4F;}
	.st13{clip-path:url(#SVGID_00000098905682351265942210000000056836253601106071_);fill:#FF5050;}
	.st14{clip-path:url(#SVGID_00000098905682351265942210000000056836253601106071_);fill:#FF5151;}
	.st15{clip-path:url(#SVGID_00000098905682351265942210000000056836253601106071_);fill:#FF5252;}
	.st16{clip-path:url(#SVGID_00000098905682351265942210000000056836253601106071_);fill:#FF5353;}
	.st17{clip-path:url(#SVGID_00000098905682351265942210000000056836253601106071_);fill:#FF5454;}
	.st18{clip-path:url(#SVGID_00000098905682351265942210000000056836253601106071_);fill:#FF5555;}
	.st19{clip-path:url(#SVGID_00000098905682351265942210000000056836253601106071_);fill:#FF5656;}
	.st20{clip-path:url(#SVGID_00000098905682351265942210000000056836253601106071_);fill:#FF5757;}
	.st21{clip-path:url(#SVGID_00000098905682351265942210000000056836253601106071_);fill:#FF5858;}
	.st22{clip-path:url(#SVGID_00000098905682351265942210000000056836253601106071_);fill:#FF5959;}
	.st23{clip-path:url(#SVGID_00000098905682351265942210000000056836253601106071_);fill:#FF5A5A;}
	.st24{clip-path:url(#SVGID_00000098905682351265942210000000056836253601106071_);fill:#FF5B5B;}
	.st25{clip-path:url(#SVGID_00000098905682351265942210000000056836253601106071_);fill:#FF5C5C;}
	.st26{clip-path:url(#SVGID_00000098905682351265942210000000056836253601106071_);fill:#FF5D5D;}
	.st27{clip-path:url(#SVGID_00000098905682351265942210000000056836253601106071_);fill:#FF5E5E;}
	.st28{clip-path:url(#SVGID_00000098905682351265942210000000056836253601106071_);fill:#FF5F5F;}
	.st29{clip-path:url(#SVGID_00000098905682351265942210000000056836253601106071_);fill:#FF6060;}
	.st30{clip-path:url(#SVGID_00000098905682351265942210000000056836253601106071_);fill:#FF6161;}
	.st31{clip-path:url(#SVGID_00000098905682351265942210000000056836253601106071_);fill:#FF6262;}
	.st32{clip-path:url(#SVGID_00000098905682351265942210000000056836253601106071_);fill:#FF6363;}
	.st33{clip-path:url(#SVGID_00000098905682351265942210000000056836253601106071_);fill:#FF6464;}
	.st34{clip-path:url(#SVGID_00000098905682351265942210000000056836253601106071_);fill:#FF6565;}
	.st35{clip-path:url(#SVGID_00000098905682351265942210000000056836253601106071_);fill:#FF6666;}
	.st36{clip-path:url(#SVGID_00000098905682351265942210000000056836253601106071_);fill:#FF6767;}
	.st37{clip-path:url(#SVGID_00000098905682351265942210000000056836253601106071_);fill:#FF6868;}
	.st38{clip-path:url(#SVGID_00000098905682351265942210000000056836253601106071_);fill:#FF6969;}
	.st39{clip-path:url(#SVGID_00000098905682351265942210000000056836253601106071_);fill:#FF6A6A;}
	.st40{clip-path:url(#SVGID_00000098905682351265942210000000056836253601106071_);fill:#FF6B6B;}
	.st41{clip-path:url(#SVGID_00000098905682351265942210000000056836253601106071_);fill:#FF6C6C;}
	.st42{clip-path:url(#SVGID_00000098905682351265942210000000056836253601106071_);fill:#FF6D6D;}
	.st43{clip-path:url(#SVGID_00000098905682351265942210000000056836253601106071_);fill:#FF6E6E;}
	.st44{clip-path:url(#SVGID_00000098905682351265942210000000056836253601106071_);fill:#FF6F6F;}
	.st45{clip-path:url(#SVGID_00000098905682351265942210000000056836253601106071_);fill:#FF7070;}
	.st46{clip-path:url(#SVGID_00000098905682351265942210000000056836253601106071_);fill:#FF7171;}
	.st47{clip-path:url(#SVGID_00000098905682351265942210000000056836253601106071_);fill:#FF7272;}
	.st48{clip-path:url(#SVGID_00000098905682351265942210000000056836253601106071_);fill:#FF7373;}
	.st49{clip-path:url(#SVGID_00000098905682351265942210000000056836253601106071_);fill:#FF7474;}
	.st50{clip-path:url(#SVGID_00000098905682351265942210000000056836253601106071_);fill:#FF7575;}
	.st51{clip-path:url(#SVGID_00000098905682351265942210000000056836253601106071_);fill:#FF7676;}
	.st52{clip-path:url(#SVGID_00000098905682351265942210000000056836253601106071_);fill:#FF7777;}
	.st53{clip-path:url(#SVGID_00000098905682351265942210000000056836253601106071_);fill:#FF7979;}
	.st54{clip-path:url(#SVGID_00000098905682351265942210000000056836253601106071_);fill:#FF7A7A;}
	.st55{clip-path:url(#SVGID_00000098905682351265942210000000056836253601106071_);fill:#FF7B7B;}
	.st56{clip-path:url(#SVGID_00000098905682351265942210000000056836253601106071_);fill:#FF7C7C;}
	.st57{clip-path:url(#SVGID_00000098905682351265942210000000056836253601106071_);fill:#FF7D7D;}
	.st58{clip-path:url(#SVGID_00000098905682351265942210000000056836253601106071_);fill:#FF7E7E;}
	.st59{clip-path:url(#SVGID_00000098905682351265942210000000056836253601106071_);fill:#FF7F7F;}
	.st60{clip-path:url(#SVGID_00000098905682351265942210000000056836253601106071_);fill:#FF8080;}
	.st61{clip-path:url(#SVGID_00000098905682351265942210000000056836253601106071_);fill:#FF8181;}
	.st62{clip-path:url(#SVGID_00000098905682351265942210000000056836253601106071_);fill:#FF8282;}
	.st63{clip-path:url(#SVGID_00000098905682351265942210000000056836253601106071_);fill:#FF8383;}
	.st64{clip-path:url(#SVGID_00000098905682351265942210000000056836253601106071_);fill:#FF8484;}
	.st65{clip-path:url(#SVGID_00000098905682351265942210000000056836253601106071_);fill:#FF8585;}
	.st66{clip-path:url(#SVGID_00000098905682351265942210000000056836253601106071_);fill:#FF8686;}
	.st67{clip-path:url(#SVGID_00000098905682351265942210000000056836253601106071_);fill:#FF8787;}
	.st68{clip-path:url(#SVGID_00000098905682351265942210000000056836253601106071_);fill:#FF8888;}
	.st69{clip-path:url(#SVGID_00000098905682351265942210000000056836253601106071_);fill:#FF8989;}
	.st70{clip-path:url(#SVGID_00000098905682351265942210000000056836253601106071_);fill:#FF8A8A;}
	.st71{clip-path:url(#SVGID_00000098905682351265942210000000056836253601106071_);fill:#FF8B8B;}
	.st72{clip-path:url(#SVGID_00000098905682351265942210000000056836253601106071_);fill:#FF8C8C;}
	.st73{clip-path:url(#SVGID_00000098905682351265942210000000056836253601106071_);fill:#FF8D8D;}
	.st74{clip-path:url(#SVGID_00000098905682351265942210000000056836253601106071_);fill:#FF8E8E;}
	.st75{clip-path:url(#SVGID_00000098905682351265942210000000056836253601106071_);fill:#FF8F8F;}
	.st76{clip-path:url(#SVGID_00000098905682351265942210000000056836253601106071_);fill:#FF9090;}
	.st77{clip-path:url(#SVGID_00000098905682351265942210000000056836253601106071_);fill:#FF9191;}
	.st78{clip-path:url(#SVGID_00000098905682351265942210000000056836253601106071_);fill:#FF9292;}
	.st79{clip-path:url(#SVGID_00000098905682351265942210000000056836253601106071_);fill:#FF9393;}
	.st80{clip-path:url(#SVGID_00000098905682351265942210000000056836253601106071_);fill:#FF9494;}
	.st81{clip-path:url(#SVGID_00000098905682351265942210000000056836253601106071_);fill:#FF9595;}
	.st82{clip-path:url(#SVGID_00000098905682351265942210000000056836253601106071_);fill:#FF9696;}
	.st83{clip-path:url(#SVGID_00000098905682351265942210000000056836253601106071_);fill:#FF9797;}
	.st84{clip-path:url(#SVGID_00000098905682351265942210000000056836253601106071_);fill:#FF9898;}
	.st85{clip-path:url(#SVGID_00000098905682351265942210000000056836253601106071_);fill:#FF9999;}
	.st86{clip-path:url(#SVGID_00000098905682351265942210000000056836253601106071_);fill:#FF9A9A;}
	.st87{clip-path:url(#SVGID_00000098905682351265942210000000056836253601106071_);fill:#FF9B9B;}
	.st88{clip-path:url(#SVGID_00000098905682351265942210000000056836253601106071_);fill:#FF9C9C;}
	.st89{clip-path:url(#SVGID_00000098905682351265942210000000056836253601106071_);fill:#FF9D9D;}
	.st90{clip-path:url(#SVGID_00000098905682351265942210000000056836253601106071_);fill:#FF9E9E;}
	.st91{clip-path:url(#SVGID_00000098905682351265942210000000056836253601106071_);fill:#FF9F9F;}
	.st92{clip-path:url(#SVGID_00000098905682351265942210000000056836253601106071_);fill:#FFA0A0;}
	.st93{clip-path:url(#SVGID_00000098905682351265942210000000056836253601106071_);fill:#FFA1A1;}
	.st94{clip-path:url(#SVGID_00000098905682351265942210000000056836253601106071_);fill:#FFA2A2;}
	.st95{clip-path:url(#SVGID_00000098905682351265942210000000056836253601106071_);fill:#FFA3A3;}
	.st96{clip-path:url(#SVGID_00000098905682351265942210000000056836253601106071_);fill:#FFA4A4;}
	.st97{clip-path:url(#SVGID_00000098905682351265942210000000056836253601106071_);fill:#FF7878;}
	.st98{clip-path:url(#SVGID_00000098905682351265942210000000056836253601106071_);fill:#FF4C4C;}
	.st99{clip-path:url(#SVGID_00000098905682351265942210000000056836253601106071_);fill:#FF4B4B;}
	.st100{clip-path:url(#SVGID_00000098905682351265942210000000056836253601106071_);fill:#FF4A4A;}
	.st101{clip-path:url(#SVGID_00000098905682351265942210000000056836253601106071_);fill:#FF4949;}
	.st102{clip-path:url(#SVGID_00000098905682351265942210000000056836253601106071_);fill:#FF4848;}
	.st103{clip-path:url(#SVGID_00000098905682351265942210000000056836253601106071_);fill:#FF4747;}
	.st104{clip-path:url(#SVGID_00000098905682351265942210000000056836253601106071_);fill:#FF4646;}
	.st105{clip-path:url(#SVGID_00000098905682351265942210000000056836253601106071_);fill:#FF4545;}
	.st106{clip-path:url(#SVGID_00000098905682351265942210000000056836253601106071_);fill:#FF4444;}
	.st107{clip-path:url(#SVGID_00000098905682351265942210000000056836253601106071_);fill:#FF4343;}
	.st108{clip-path:url(#SVGID_00000098905682351265942210000000056836253601106071_);fill:#FF4242;}
	.st109{clip-path:url(#SVGID_00000098905682351265942210000000056836253601106071_);fill:#FF4141;}
	.st110{clip-path:url(#SVGID_00000098905682351265942210000000056836253601106071_);fill:#FF4040;}
	.st111{clip-path:url(#SVGID_00000098905682351265942210000000056836253601106071_);fill:#FF3F3F;}
	.st112{clip-path:url(#SVGID_00000098905682351265942210000000056836253601106071_);fill:#FF3E3E;}
	.st113{clip-path:url(#SVGID_00000098905682351265942210000000056836253601106071_);fill:#FF3D3D;}
	.st114{clip-path:url(#SVGID_00000098905682351265942210000000056836253601106071_);fill:#FF3C3C;}
	.st115{clip-path:url(#SVGID_00000098905682351265942210000000056836253601106071_);fill:#FF3B3B;}
	.st116{clip-path:url(#SVGID_00000098905682351265942210000000056836253601106071_);fill:#FF3A3A;}
	.st117{clip-path:url(#SVGID_00000098905682351265942210000000056836253601106071_);fill:#FF3939;}
	.st118{clip-path:url(#SVGID_00000098905682351265942210000000056836253601106071_);fill:#FF3838;}
	.st119{clip-path:url(#SVGID_00000098905682351265942210000000056836253601106071_);fill:#FF3737;}
	.st120{clip-path:url(#SVGID_00000098905682351265942210000000056836253601106071_);fill:#FF3636;}
	.st121{clip-path:url(#SVGID_00000098905682351265942210000000056836253601106071_);fill:#FF3535;}
	.st122{clip-path:url(#SVGID_00000098905682351265942210000000056836253601106071_);fill:#FF3434;}
	.st123{clip-path:url(#SVGID_00000098905682351265942210000000056836253601106071_);fill:#FF3333;}
	.st124{clip-path:url(#SVGID_00000098905682351265942210000000056836253601106071_);fill:#FF3232;}
	.st125{clip-path:url(#SVGID_00000098905682351265942210000000056836253601106071_);fill:#FF3131;}
	.st126{clip-path:url(#SVGID_00000098905682351265942210000000056836253601106071_);fill:#FF3030;}
	.st127{clip-path:url(#SVGID_00000098905682351265942210000000056836253601106071_);fill:#FF2F2F;}
	.st128{clip-path:url(#SVGID_00000098905682351265942210000000056836253601106071_);fill:#FF2E2E;}
	.st129{clip-path:url(#SVGID_00000098905682351265942210000000056836253601106071_);fill:#FF2D2D;}
	.st130{clip-path:url(#SVGID_00000098905682351265942210000000056836253601106071_);fill:#FF2C2C;}
	.st131{clip-path:url(#SVGID_00000098905682351265942210000000056836253601106071_);fill:#FF2B2B;}
	.st132{clip-path:url(#SVGID_00000098905682351265942210000000056836253601106071_);fill:#FF2A2A;}
	.st133{clip-path:url(#SVGID_00000098905682351265942210000000056836253601106071_);fill:#FF2929;}
	.st134{clip-path:url(#SVGID_00000098905682351265942210000000056836253601106071_);fill:#FF2828;}
	.st135{clip-path:url(#SVGID_00000098905682351265942210000000056836253601106071_);fill:#FF2727;}
	.st136{clip-path:url(#SVGID_00000098905682351265942210000000056836253601106071_);fill:#FF2626;}
	.st137{clip-path:url(#SVGID_00000098905682351265942210000000056836253601106071_);fill:#FF2525;}
	.st138{clip-path:url(#SVGID_00000098905682351265942210000000056836253601106071_);fill:#FF2424;}
	.st139{clip-path:url(#SVGID_00000098905682351265942210000000056836253601106071_);fill:#FF2323;}
	.st140{clip-path:url(#SVGID_00000098905682351265942210000000056836253601106071_);fill:#FF2222;}
	.st141{clip-path:url(#SVGID_00000098905682351265942210000000056836253601106071_);fill:#FF2121;}
	.st142{clip-path:url(#SVGID_00000098905682351265942210000000056836253601106071_);fill:#FF2020;}
	.st143{clip-path:url(#SVGID_00000098905682351265942210000000056836253601106071_);fill:#FF1F1F;}
	.st144{clip-path:url(#SVGID_00000098905682351265942210000000056836253601106071_);fill:#FF1E1E;}
	.st145{clip-path:url(#SVGID_00000098905682351265942210000000056836253601106071_);fill:#FF1D1D;}
	.st146{clip-path:url(#SVGID_00000098905682351265942210000000056836253601106071_);fill:#FF1C1C;}
	.st147{clip-path:url(#SVGID_00000098905682351265942210000000056836253601106071_);fill:#FF1B1B;}
	.st148{clip-path:url(#SVGID_00000098905682351265942210000000056836253601106071_);fill:#FF1A1A;}
	.st149{clip-path:url(#SVGID_00000098905682351265942210000000056836253601106071_);fill:#FF1919;}
	.st150{clip-path:url(#SVGID_00000098905682351265942210000000056836253601106071_);fill:#FF1818;}
	.st151{clip-path:url(#SVGID_00000098905682351265942210000000056836253601106071_);fill:#FF1717;}
	.st152{clip-path:url(#SVGID_00000098905682351265942210000000056836253601106071_);fill:#FF1616;}
	.st153{clip-path:url(#SVGID_00000098905682351265942210000000056836253601106071_);fill:#FF1515;}
	.st154{clip-path:url(#SVGID_00000098905682351265942210000000056836253601106071_);fill:#FF1414;}
	.st155{clip-path:url(#SVGID_00000098905682351265942210000000056836253601106071_);fill:#FF1313;}
	.st156{clip-path:url(#SVGID_00000098905682351265942210000000056836253601106071_);fill:#FF1212;}
	.st157{clip-path:url(#SVGID_00000098905682351265942210000000056836253601106071_);fill:#FF1111;}
	.st158{clip-path:url(#SVGID_00000098905682351265942210000000056836253601106071_);fill:#FF1010;}
	.st159{clip-path:url(#SVGID_00000098905682351265942210000000056836253601106071_);fill:#FF0F0F;}
	.st160{clip-path:url(#SVGID_00000098905682351265942210000000056836253601106071_);fill:#FF0E0E;}
	.st161{clip-path:url(#SVGID_00000098905682351265942210000000056836253601106071_);fill:#FF0D0D;}
	.st162{clip-path:url(#SVGID_00000098905682351265942210000000056836253601106071_);fill:#FF0C0C;}
	.st163{clip-path:url(#SVGID_00000098905682351265942210000000056836253601106071_);fill:#FF0B0B;}
	.st164{clip-path:url(#SVGID_00000098905682351265942210000000056836253601106071_);fill:#FF0A0A;}
	.st165{clip-path:url(#SVGID_00000098905682351265942210000000056836253601106071_);fill:#FF0909;}
	.st166{clip-path:url(#SVGID_00000098905682351265942210000000056836253601106071_);fill:#FF0808;}
	.st167{clip-path:url(#SVGID_00000098905682351265942210000000056836253601106071_);fill:#FF0707;}
	.st168{clip-path:url(#SVGID_00000098905682351265942210000000056836253601106071_);fill:#FF0606;}
	.st169{clip-path:url(#SVGID_00000098905682351265942210000000056836253601106071_);fill:#FF0505;}
	.st170{clip-path:url(#SVGID_00000098905682351265942210000000056836253601106071_);fill:#FF0404;}
	.st171{clip-path:url(#SVGID_00000098905682351265942210000000056836253601106071_);fill:#FF0303;}
	.st172{clip-path:url(#SVGID_00000098905682351265942210000000056836253601106071_);fill:#FF0202;}
	.st173{clip-path:url(#SVGID_00000098905682351265942210000000056836253601106071_);fill:#FF0101;}
	.st174{clip-path:url(#SVGID_00000098905682351265942210000000056836253601106071_);fill:#FF0000;}
	.st175{fill:#7A8C91;}
</style>
<g>
	<g>
		<path class="st2" d="M116.3,96.1c0-0.2-0.1-0.5-0.1-0.8l0-11.5c0-1.2,0.8-2.2,1.9-2.5c0-0.3,0-0.5,0-0.8c0.3-3.5,2.9-6.5,6.3-7.4    c0.7-0.2,1.4-0.3,2.2-0.3c-6.7-15.1-21.8-25.6-39.3-25.6c-23.8,0-43,19.3-43,43c0,23.8,19.3,43,43,43c20.7,0,37.9-14.6,42.1-34    l-9.1,0C118.3,99.3,116.7,98,116.3,96.1z"/>
	</g>
	<g>
		<g>
			<path class="st3" d="M120.1,83.2c0-0.2,0-0.3,0-0.5c0-0.7,0-1.4,0-2.1c0.3-2.7,2.2-4.9,4.8-5.6c3.8-1,7.6,1.5,8.2,5.3     c0.1,0.5,0.1,1,0.1,1.4c0,0.5,0,0.9,0,1.4c0.1,0,0.1,0,0.2,0c0.3,0,0.7,0,1,0c0.5,0,0.6,0.2,0.6,0.7c0,1.2,0,2.4,0,3.6     c0,2.6,0,5.2,0,7.8c0,0.5-0.2,1-0.5,1.4c-0.4,0.4-0.9,0.6-1.4,0.6c-2.2,0-4.4,0-6.6,0c-2.1,0-4.2,0-6.3,0c-1,0-1.7-0.6-1.9-1.6     c0-0.1,0-0.3,0-0.4c0-3.8,0-7.7,0-11.5c0-0.4,0.2-0.6,0.6-0.6C119.2,83.2,119.7,83.2,120.1,83.2z M130.3,83.2c0-0.1,0-0.3,0-0.4     c0-0.6,0-1.3,0-1.9c-0.2-1.7-1.6-3-3.3-3.2c-2.2-0.2-4,1.5-4,3.7c0,0.5,0,1.1,0,1.6c0,0.1,0,0.1,0,0.2     C125.4,83.2,127.9,83.2,130.3,83.2z M126.7,93.5c0.3,0,0.6,0,0.9,0c0.3,0,0.5-0.2,0.4-0.5c-0.1-0.8-0.2-1.6-0.3-2.4     c0-0.1,0-0.2,0.1-0.3c0.8-0.7,0.8-1.9,0.1-2.6c-0.7-0.8-1.9-0.8-2.6,0c-0.7,0.8-0.6,2,0.1,2.6c0.1,0.1,0.1,0.1,0.1,0.2     c-0.1,0.8-0.2,1.6-0.3,2.5c0,0.3,0.1,0.5,0.5,0.5C126.1,93.5,126.4,93.5,126.7,93.5z"/>
		</g>
	</g>
	<g>
		<g>
			<path class="st4" d="M79.2,44.8c1.4,0,2.5,1.2,2.4,2.6c-0.1,2.2,0.1,15.6-0.1,22.7c0,0.7,0.4,1,0.8,1.4     c7.3,7.4,27,28.7,34.5,35.4c0.8,0.7,1.2,1.8,1.7,2.8c0.5,0.9,0.9,1.9,1.5,2.6c1,1,1.1,2.5,0.3,3.5l0,0.1     c-0.1,0.2-0.3,0.4-0.2,0.6c0.2,1.7,0.4,3.4,0.6,5.1c0,0,0,0,0,0l-2,0.7c0,0,0,0,0,0c-0.4,1.2,0.2,2.1,0.9,3     c0.5,0.5,0.6,1.1,0.5,1.8l0,0.1c-0.2,0.8-1.1,1.3-1.9,0.8l0,0c-0.3-0.2-0.6-0.3-0.9-0.3c-3.9,0.2-7.8,0.5-11.8,0.7     c-1.1,0.1-2.2,0.1-3.4,0.1c-0.2,0-0.6-0.1-0.7-0.3c-1.2-1.7-2.5-3.4-3-5.5c-0.1-0.4-0.4-0.7-0.7-1c-0.4-0.4-0.8-0.7-1.2-1.1     c-0.9-1-1.9-1.5-3.3-1.3c-0.4,0.1-0.6-0.1-0.7-0.6c-0.1-0.6-0.4-1.2-0.5-1.8c-0.1-0.6-0.4-0.7-0.9-0.7c-1.1,0-2.2,0-3.3-0.1     c-0.3,0-0.6-0.3-0.8-0.5c-0.9-1-1.7-2.1-2.6-3.1c-0.1-0.2-0.5-0.2-0.7-0.2c-0.2,0-0.4,0.1-0.6,0.2c-1.1,0.6-2.3,1-3.5,0.3     c-0.2-0.1-0.5-0.1-0.8-0.1c-1.1,0.1-1.7-0.5-1.8-1.6c0-0.9,0-1.7-0.1-2.5c-0.3-1.9-1.4-3.5-2.7-4.8c-1-1.1-1.7-2.2-1.8-3.6     c0-0.4-0.3-0.8-0.6-1.1c-0.6-0.6-1.1-1.2-1.7-1.8c-1.1-1.1-1.1-2.9,0-4l0,0c0,0,0,0,0-0.1c0,0-5.2-8-5.4-9.1     c-0.1-1.1-0.7-1.6-1.9-2.1c-1.7-0.7-1.2-2.3-1.1-3.2c0-0.3-0.1-0.7-0.3-0.8c-1.3-1.2-2.7-2.3-3.9-3.6c-0.6-0.7-0.9-1.7-1.2-2.7     c-0.1-0.3,0.3-0.9,0.6-1.2c0.6-0.7,0.5-1.4,0.1-2.3c-0.9-2.9-1.8-4.4-2.4-5.6c-0.7-1.3-1-2.8-0.7-4.3c0.5-2.9,1.4-7,1-8     c-0.3-0.8-0.2-1.2,0.1-2.7c0.3-1.9,0.5-2.8,2.6-2.8c2.1,0,5.5,0,10.2,0.1C72.3,44.8,77.9,44.7,79.2,44.8z"/>
		</g>
	</g>
	<g>
		<g>
			<path class="st5" d="M60.6,92.7l4.3,1.3c-0.3,1.2-0.7,2.2-1.4,3s-1.4,1.4-2.3,1.8c-0.9,0.4-2.1,0.6-3.5,0.6     c-1.7,0-3.1-0.2-4.2-0.7c-1.1-0.5-2-1.4-2.8-2.6c-0.8-1.3-1.2-2.9-1.2-4.8c0-2.6,0.7-4.6,2.1-6c1.4-1.4,3.4-2.1,5.9-2.1     c2,0,3.6,0.4,4.7,1.2c1.1,0.8,2,2,2.5,3.7l-4.3,1c-0.2-0.5-0.3-0.8-0.5-1.1c-0.3-0.4-0.6-0.7-1-0.9c-0.4-0.2-0.8-0.3-1.3-0.3     c-1.1,0-2,0.4-2.5,1.3c-0.4,0.7-0.7,1.7-0.7,3.1c0,1.8,0.3,3,0.8,3.6s1.3,1,2.2,1c0.9,0,1.6-0.3,2.1-0.8     C60.1,94.4,60.4,93.7,60.6,92.7z"/>
		</g>
		<g>
			<path class="st5" d="M77.3,92.7l4.3,1.3c-0.3,1.2-0.7,2.2-1.4,3s-1.4,1.4-2.3,1.8c-0.9,0.4-2.1,0.6-3.5,0.6     c-1.7,0-3.1-0.2-4.2-0.7c-1.1-0.5-2-1.4-2.8-2.6c-0.8-1.3-1.2-2.9-1.2-4.8c0-2.6,0.7-4.6,2.1-6c1.4-1.4,3.4-2.1,5.9-2.1     c2,0,3.6,0.4,4.7,1.2c1.1,0.8,2,2,2.5,3.7l-4.3,1c-0.2-0.5-0.3-0.8-0.5-1.1c-0.3-0.4-0.6-0.7-1-0.9c-0.4-0.2-0.8-0.3-1.3-0.3     c-1.1,0-2,0.4-2.5,1.3c-0.4,0.7-0.7,1.7-0.7,3.1c0,1.8,0.3,3,0.8,3.6s1.3,1,2.2,1c0.9,0,1.6-0.3,2.1-0.8     C76.8,94.4,77.1,93.7,77.3,92.7z"/>
		</g>
		<g>
			<path class="st5" d="M83.5,83.3h8.1c1.8,0,3.1,0.4,4,1.3c0.9,0.8,1.3,2,1.3,3.6c0,1.6-0.5,2.8-1.4,3.7c-1,0.9-2.4,1.3-4.4,1.3     h-2.7v5.9h-4.9V83.3z M88.4,90.1h1.2c0.9,0,1.6-0.2,2-0.5c0.4-0.3,0.6-0.7,0.6-1.3c0-0.5-0.2-0.9-0.5-1.3c-0.3-0.3-1-0.5-1.9-0.5     h-1.4V90.1z"/>
		</g>
		<g>
			<path class="st5" d="M106.9,96.5h-5.5l-0.8,2.6h-5l5.9-15.8h5.3l5.9,15.8h-5.1L106.9,96.5z M105.9,93.1l-1.7-5.7l-1.7,5.7H105.9z     "/>
		</g>
	</g>
</g>
</svg>