<svg xmlns="http://www.w3.org/2000/svg" xml:space="preserve" id="pci" x="0" y="0" enable-background="new 0 0 225.8 68.4" version="1.1" viewBox="0 0 225.8 68.4">
  <g>
    <g>
      <path fill="#02797E" d="M110.7 31c.6.4 1.5.7 2.4.7 1.4 0 2.2-.7 2.2-1.8 0-1-.6-1.5-2-2.1-1.7-.6-2.8-1.5-2.8-3 0-1.6 1.4-2.8 3.4-2.8 1.1 0 1.8.2 2.3.5l-.4 1.1c-.3-.2-1-.5-2-.5-1.4 0-2 .9-2 1.6 0 1 .6 1.5 2.1 2 1.8.7 2.6 1.5 2.6 3.1 0 1.6-1.2 3-3.6 3-1 0-2.1-.3-2.7-.7L110.7 31M119.3 29.1c0 1.8 1.2 2.6 2.6 2.6 1 0 1.6-.2 2.1-.4l.2 1c-.5.2-1.3.5-2.5.5-2.3 0-3.7-1.5-3.7-3.8 0-2.3 1.4-4.1 3.5-4.1 2.4 0 3.1 2.2 3.1 3.5 0 .3 0 .5 0 .7L119.3 29.1M123.3 28.2c0-.9-.4-2.2-1.9-2.2-1.4 0-2 1.3-2.1 2.2H123.3zM131.7 32.4c-.4.2-1.2.4-2.2.4-2.3 0-3.7-1.5-3.7-3.8 0-2.3 1.6-4 4-4 .8 0 1.5.2 1.9.4l-.3 1c-.3-.2-.8-.4-1.6-.4-1.7 0-2.7 1.3-2.7 2.9 0 1.7 1.1 2.8 2.6 2.8.8 0 1.3-.2 1.7-.4L131.7 32.4M139.5 30.6c0 .8 0 1.5.1 2h-1.2l-.1-1.2h0c-.3.6-1.2 1.4-2.5 1.4-1.2 0-2.6-.7-2.6-3.3v-4.4h1.4v4.1c0 1.4.5 2.4 1.7 2.4.9 0 1.6-.6 1.8-1.3.1-.2.1-.4.1-.7v-4.6h1.4V30.6M141.8 27.5c0-.9 0-1.6-.1-2.3h1.2l.1 1.5h0c.3-1 1.2-1.6 2.1-1.6.1 0 .3 0 .4 0v1.3c-.2 0-.3 0-.5 0-1 0-1.6.7-1.8 1.7 0 .2 0 .4 0 .7v4h-1.4L141.8 27.5M147.6 23.8c-.5 0-.9-.4-.9-.9 0-.5.4-.9.9-.9.5 0 .9.4.9.9C148.5 23.4 148.2 23.8 147.6 23.8L147.6 23.8M148.3 32.7H147v-7.5h1.4V32.7zM152.2 23.4v1.8h2v1h-2v4.1c0 .9.3 1.5 1 1.5.4 0 .6 0 .8-.1l.1 1c-.3.1-.7.2-1.2.2-.6 0-1.1-.2-1.5-.6-.4-.4-.5-1.1-.5-2v-4.1h-1.2v-1h1.2v-1.4L152.2 23.4M156.4 25.2l1.6 4.4c.2.5.4 1.1.5 1.5h0c.1-.4.3-1 .5-1.6l1.5-4.4h1.4l-2.1 5.4c-1 2.6-1.6 3.9-2.6 4.7-.7.6-1.3.8-1.7.9l-.3-1.1c.3-.1.8-.3 1.2-.7.4-.3.8-.8 1.1-1.5.1-.1.1-.2.1-.3 0-.1 0-.2-.1-.3l-2.8-6.9H156.4M110.7 46.5c.6.4 1.5.7 2.4.7 1.4 0 2.2-.7 2.2-1.8 0-1-.6-1.5-2-2.1-1.7-.6-2.8-1.5-2.8-3 0-1.6 1.4-2.8 3.4-2.8 1.1 0 1.8.2 2.3.5l-.4 1.1c-.3-.2-1-.5-2-.5-1.4 0-2 .9-2 1.6 0 1 .6 1.5 2.1 2 1.8.7 2.6 1.5 2.6 3.1 0 1.6-1.2 3-3.6 3-1 0-2.1-.3-2.7-.7L110.7 46.5M120 38.9v1.8h2v1h-2v4c0 .9.3 1.5 1 1.5.4 0 .6 0 .8-.1l.1 1c-.3.1-.7.2-1.2.2-.6 0-1.1-.2-1.5-.6-.4-.4-.5-1.1-.5-2v-4.1h-1.2v-1h1.2v-1.4L120 38.9M128.8 46.4c0 .7 0 1.3.1 1.8h-1.2l-.1-.9h0c-.4.6-1.2 1.1-2.3 1.1-1.5 0-2.3-1.1-2.3-2.2 0-1.8 1.6-2.8 4.5-2.8v-.2c0-.6-.2-1.8-1.7-1.7-.7 0-1.4.2-2 .6l-.3-.9c.6-.4 1.5-.6 2.5-.6 2.3 0 2.9 1.6 2.9 3.1V46.4M127.5 44.4c-1.5 0-3.2.2-3.2 1.7 0 .9.6 1.3 1.3 1.3 1 0 1.6-.6 1.8-1.3 0-.1.1-.3.1-.4V44.4zM131 42.7c0-.8 0-1.4-.1-2h1.2l.1 1.2h0c.4-.7 1.2-1.4 2.5-1.4 1 0 2.7.6 2.7 3.2v4.5H136v-4.3c0-1.2-.5-2.2-1.7-2.2-.9 0-1.6.6-1.8 1.4-.1.2-.1.4-.1.6v4.5H131V42.7M146.1 37.2v9.1c0 .7 0 1.4.1 1.9h-1.2l-.1-1.3h0c-.4.8-1.3 1.5-2.5 1.5-1.8 0-3.2-1.5-3.2-3.8 0-2.5 1.6-4 3.4-4 1.2 0 1.9.5 2.3 1.1h0v-4.5H146.1M144.7 43.7c0-.2 0-.4-.1-.6-.2-.9-.9-1.6-2-1.6-1.4 0-2.3 1.2-2.3 2.9 0 1.5.8 2.8 2.2 2.8.9 0 1.7-.6 2-1.6.1-.2.1-.4.1-.6V43.7zM153.7 46.4c0 .7 0 1.3.1 1.8h-1.2l-.1-.9h0c-.4.6-1.2 1.1-2.3 1.1-1.5 0-2.3-1.1-2.3-2.2 0-1.8 1.6-2.8 4.5-2.8v-.2c0-.6-.2-1.8-1.7-1.7-.7 0-1.4.2-2 .6l-.3-.9c.6-.4 1.5-.6 2.5-.6 2.3 0 2.9 1.6 2.9 3.1V46.4M152.3 44.4c-1.5 0-3.2.2-3.2 1.7 0 .9.6 1.3 1.3 1.3 1 0 1.6-.6 1.8-1.3 0-.1.1-.3.1-.4V44.4zM155.9 43c0-.9 0-1.6-.1-2.3h1.2l.1 1.5h.1c.3-1 1.2-1.6 2.1-1.6.1 0 .2 0 .4 0v1.3c-.2 0-.3 0-.5 0-1 0-1.6.7-1.8 1.7 0 .2 0 .4 0 .7v4h-1.4L155.9 43M167.3 37.2v9.1c0 .7 0 1.4.1 1.9h-1.2l-.1-1.3h0c-.4.8-1.3 1.5-2.6 1.5-1.8 0-3.2-1.5-3.2-3.8 0-2.5 1.5-4 3.4-4 1.2 0 1.9.5 2.3 1.1h0v-4.5H167.3M166 43.7c0-.2 0-.4-.1-.6-.2-.9-1-1.6-2-1.6-1.4 0-2.2 1.2-2.2 2.9 0 1.5.8 2.8 2.2 2.8.9 0 1.8-.6 2-1.6 0-.2.1-.4.1-.6V43.7zM169.4 46.8c.4.3 1.1.5 1.8.5 1 0 1.4-.5 1.4-1.1 0-.7-.4-1-1.4-1.4-1.4-.5-2-1.2-2-2.1 0-1.2 1-2.2 2.6-2.2.8 0 1.4.2 1.8.5l-.3 1c-.3-.2-.8-.4-1.5-.4-.8 0-1.2.5-1.2 1 0 .6.4.9 1.4 1.3 1.3.5 2 1.1 2 2.3 0 1.3-1 2.3-2.8 2.3-.8 0-1.6-.2-2.1-.5L169.4 46.8M186.4 47.9c-.5.2-1.5.5-2.8.5-2.9 0-5.2-1.9-5.2-5.3 0-3.3 2.2-5.5 5.5-5.5 1.3 0 2.1.3 2.5.5l-.3 1.1c-.5-.2-1.2-.4-2.1-.4-2.5 0-4.1 1.6-4.1 4.3 0 2.6 1.5 4.2 4 4.2.8 0 1.7-.2 2.2-.4L186.4 47.9M190.9 48.4c-2 0-3.6-1.5-3.6-3.9 0-2.5 1.7-4 3.7-4 2.2 0 3.6 1.6 3.6 3.8C194.6 47.1 192.7 48.4 190.9 48.4L190.9 48.4M190.9 47.3c1.3 0 2.3-1.2 2.3-2.9 0-1.3-.6-2.9-2.3-2.9-1.6 0-2.3 1.5-2.3 2.9C188.7 46.1 189.6 47.3 190.9 47.3L190.9 47.3zM202.6 46.1c0 .8 0 1.5.1 2h-1.2l-.1-1.2h0c-.3.6-1.2 1.4-2.5 1.4-1.2 0-2.6-.7-2.6-3.3v-4.4h1.4v4.1c0 1.4.4 2.4 1.7 2.4.9 0 1.5-.6 1.8-1.3.1-.2.1-.4.1-.7v-4.6h1.4V46.1M204.9 42.7c0-.8 0-1.4-.1-2h1.2l.1 1.2h0c.4-.7 1.2-1.4 2.5-1.4 1 0 2.7.6 2.7 3.2v4.5h-1.4v-4.3c0-1.2-.5-2.2-1.7-2.2-.9 0-1.6.6-1.8 1.4-.1.2-.1.4-.1.6v4.5h-1.4V42.7M218.9 47.9c-.4.2-1.1.4-2.2.4-2.3 0-3.7-1.5-3.7-3.8 0-2.3 1.6-4 4-4 .8 0 1.5.2 1.9.4l-.3 1c-.3-.2-.8-.4-1.6-.4-1.7 0-2.7 1.3-2.7 2.9 0 1.7 1.1 2.8 2.6 2.8.8 0 1.3-.2 1.7-.4L218.9 47.9M221.1 39.3c-.5 0-.9-.4-.9-.9 0-.5.4-.9.9-.9.5 0 .9.4.9.9C222 38.9 221.7 39.3 221.1 39.3L221.1 39.3M221.8 48.2h-1.4v-7.5h1.4V48.2z"></path>
      <rect width="1.4" height="11" x="224.1" y="37.2" fill="#02797E"></rect>
      <g>
        <polyline fill="#02797E" points="103.7 43.2 23.4 68.4 0 4.7 84.3 0 103.7 43.2"></polyline>
      </g>
      <path fill="#FFF" d="M43 30.4c0 1.6-.4 3-1.1 4.3-.7 1.2-1.7 2.3-3 3.1-1.3.8-2.9 1.4-4.7 1.8-1.8.4-3.8.6-6.1.6h-1.6v8.2H16.1V21.1h12.2c4.6 0 8.2.8 10.8 2.3C41.7 24.9 43 27.3 43 30.4M33 30.5c0-2.4-1.8-3.6-5.3-3.6h-1.3v7.3h1.2c1.7 0 3.1-.3 4-.9C32.5 32.8 33 31.8 33 30.5zM68.8 48.4c-1.6.3-3.4.5-5.5.5-2.9 0-5.5-.3-7.7-1-2.3-.7-4.2-1.6-5.8-2.8-1.6-1.2-2.8-2.7-3.6-4.4-.8-1.8-1.2-3.7-1.2-5.8 0-2.1.4-4 1.3-5.8.9-1.7 2.1-3.2 3.7-4.5 1.6-1.2 3.5-2.2 5.7-2.9 2.2-.7 4.6-1 7.2-1 2 0 3.9.1 5.6.4 1.7.4 1.7.4 3 .9l0 7.3c-1-.6-2.2-1.1-3.5-1.4-1.3-.4-2.7-.6-4.1-.6-2.4 0-4.3.7-5.8 1.9-1.5 1.3-2.2 3.1-2.2 5.6 0 1.2.2 2.3.7 3.3.5.9 1.1 1.7 1.9 2.3.8.6 1.7 1.1 2.8 1.4 1.1.3 2.2.5 3.4.5 1.2 0 2.5-.1 3.7-.4 1.2-.3 2.5-.6 3.8-1.2l0 6.9C70.6 48 70.4 48.1 68.8 48.4"></path>
      <rect width="10.5" height="27.4" x="76.5" y="21.1" fill="#FFF"></rect>
      <path fill="#FFF" d="M88.1,12.5c0,1.8-0.6,3.3-1.8,4.3c-1.2,1-2.7,1.6-4.5,1.6c-1.8,0-3.3-0.5-4.5-1.6c-1.2-1-1.8-2.5-1.8-4.3c0-1.9,0.6-3.3,1.8-4.4c1.2-1.1,2.7-1.6,4.5-1.6c1.8,0,3.3,0.5,4.5,1.6C87.5,9.1,88.1,10.6,88.1,12.5"></path>
    </g>
    <g>
      <path fill="#02797E" d="M225.8,24.5c0,1.7-1.4,3.1-3.2,3.1c-1.8,0-3.2-1.4-3.2-3.1c0-1.7,1.4-3.1,3.2-3.1C224.4,21.4,225.8,22.8,225.8,24.5z M220.4,24.5c0,1.3,1,2.3,2.2,2.3c1.3,0,2.2-1,2.2-2.3c0-1.3-1-2.3-2.3-2.3C221.3,22.2,220.4,23.2,220.4,24.5z M222.2,26h-0.9v-2.9c0.2,0,0.7-0.1,1.3-0.1c0.6,0,0.9,0.1,1.1,0.2c0.2,0.1,0.3,0.3,0.3,0.6s-0.3,0.5-0.7,0.6v0c0.3,0.1,0.5,0.3,0.6,0.7c0.1,0.4,0.1,0.6,0.2,0.7h-1c-0.1-0.1-0.1-0.4-0.2-0.6c-0.1-0.3-0.2-0.4-0.5-0.4h-0.3V26z M222.3,24.4h0.3c0.3,0,0.5-0.1,0.5-0.3c0-0.2-0.2-0.4-0.5-0.4c-0.1,0-0.2,0-0.3,0V24.4z"></path>
    </g>
  </g>
</svg>
