<?xml version="1.0" encoding="UTF-8"?>
<svg version="1.1" viewBox="0 0 1168 1168" width="292" height="292" xmlns="http://www.w3.org/2000/svg">
<path transform="translate(878,71)" d="m0 0h19l5 5 11 23 13 30 9 19 11 24 17 40 19 43 17 37 9 20 13 29 12 26 17 37 26 58 15 33 1 4-12 5-43 13-47 15-42 13-17 5-1-1-1-270-107-1v278l92-1v2l-24 7-40 12-45 14-31 10-45 14-31 10-49 15-43 14-19 6-37 11-30 10-114 36-34 11-35 11-34 11-7 2h-6l-8-20-15-41-9-24-19-54-11-29-8-23 1-4 99-1v-27l1-53 2-1 57-4 25-5 21-7 19-10 11-8 10-9 9-12 6-12 4-17 1-8v-19l-4-21-8-16-7-9-4-5-12-9-12-7-19-7-18-5-15-3-24-2-21-1h-129v261l-3-4-14-39-13-38-20-55-22-61-16-43-14-36-11-29-7-21-21-57-10-30v-6l5-2 35-3 92-6 67-4 101-5 114-7 89-5 103-5 165-10zm-16 60-12 3-16 8-13 12-5 8-4 12-1 6v23l2 10 4 10 9 12 13 10 8 4 16 4 16 1 19-3 13-5 11-8 5-4 7-10 5-11 2-11v-20l-2-10-5-12-7-9-9-8-17-9-6-2-7-1zm-177 141-20 1-27 3-23 5-21 8-16 8-14 8-13 10-10 9-8 10-9 13-6 11-7 16-5 21-2 11v22l4 22 5 18 7 16 12 17 11 12 11 10 15 10 16 8 13 6 23 7 28 5 11 1h61l17-2 25-5 16-5 1-1v-71l-12 3-25 7-21 4h-33l-22-5-16-8-9-6-5-4-10-14-6-13-2-11-1-18 2-15 5-15 7-11 11-11 10-6 13-6 14-3h34l19 3 15 5 25 10 1-39v-35l-3-4-18-5-14-3-27-3z" fill="#036973"/>
<path transform="translate(320,341)" d="m0 0h29l16 4 8 5 7 9 3 8 1 10-2 10-6 10-8 7-10 4-10 2-18 1-9-1-1-2z" fill="#036973"/>
<path transform="translate(561,987)" d="m0 0 13 1 1 108-1 2h-10l-1-1-1-9-4 2-8 7-5 2h-18l-10-5-7-8-5-10-2-11v-8l4-16 7-11 9-6 5-2 6-1h10l8 3 9 7-1-2v-41zm-28 45-8 6-4 5-4 11v15l3 9 6 7 8 4 7 1 9-3 5-4 5-10 1-5v-18l-3-8-4-5-8-5z" fill="#096C76"/>
<path transform="translate(354,987)" d="m0 0h5l2 3-1 108-6 1-5-1-1-3v-7l-13 10-4 1h-19l-6-3-7-6-7-12-2-6-1-7v-9l3-12 4-8 8-9 10-5 11-2 10 3 12 8v-43zm-34 45-8 5-6 9-3 9v13l4 11 4 5 6 4 3 1h10l9-4 6-7 2-6v-21l-3-9-4-5-9-5z" fill="#066A74"/>
<path transform="translate(31,991)" d="m0 0h12l14 3 2 1-1 6-2 6-6-1-7-2h-15l-6 3-3 1-2 5-1 9 4 6 8 6 16 8 10 6 6 7 3 7 1 10-2 9-8 11-8 5-7 2h-24l-14-4-1-1v-7l2-4 6 1 12 3h17l7-4 4-6 1-3v-7l-3-7-8-6-18-8-10-7-6-8-2-7v-11l5-9 8-8 9-4z" fill="#086C75"/>
<path transform="translate(734,991)" d="m0 0h16l14 3 2 2-2 9-1 2-17-4-14 1-10 3-11 8-6 10-4 16v12l3 12 6 10 9 8 11 4 8 1h9l11-2 6-1 2 6-1 5-11 3h-29l-13-4-11-8-6-8-5-10-4-16v-15l4-15 7-12 9-9 10-6 12-4z" fill="#076B75"/>
<path transform="translate(806,1021)" d="m0 0h11l10 2 10 6 7 9 4 10 1 5v15l-3 10-5 8-4 5-9 6-5 2h-22l-10-4-5-4-7-11-3-8-1-7v-11l3-10 6-10 8-8 9-4zm4 10-9 3-5 5-5 7-2 6v16l4 11 5 6 7 4 4 1h7l8-3 8-9 3-11v-14l-4-11-6-7-6-3z" fill="#086C76"/>
<path transform="translate(27,835)" d="m0 0h16l15 3 1 5-3 6-3 1-9-3h-16l-6 3-6 8v7l4 7 6 5 22 10 10 9 5 12v13l-4 8-6 7-12 6-4 1h-21l-13-4-3-2v-5l3-6 10 3 9 2h13l8-4 5-6 2-8-4-10-6-5-20-9-11-8-6-10-1-10 3-10 5-7 8-6z" fill="#056A74"/>
<path transform="translate(151,1021)" d="m0 0h16l7 3 7 7 4 8 1 3v56h-11v-7l-7 3-6 4-5 1h-17l-7-4-5-8-1-3v-10l3-9 5-6 10-5 27-6-1-6-4-6-3-3-3-1-14 1-13 3-2-7 5-5zm16 38-10 2-9 3-7 8v10l4 6 4 2h10l8-5 5-6 1-4v-9l-2-7z" fill="#096C76"/>
<path transform="translate(106,864)" d="m0 0h13l10 3 8 8 5 10 2 8v11l-2 2-7 1h-44v7l4 9 8 6 5 2h21l5-2 4 1 1 2v6l-6 3-10 2h-16l-13-4-10-9-5-10-2-8v-14l4-14 7-10 9-7zm2 10-8 3-7 8-3 8v3l7 1h33l2-2-4-12-6-7-4-2z" fill="#096C76"/>
<path transform="translate(240,1021)" d="m0 0h11l9 3 6 5 5 10 2 12v46l-1 1h-12l-1-1-1-48-3-9-4-5-5-2h-8l-8 4-4 5-3 9-1 47h-13l-1-3v-73h11l1 1 1 9 10-8z" fill="#086C76"/>
<path transform="translate(406,1021)" d="m0 0 12 1 9 4 6 8 3 8 1 12v43l-2 2h-7l-3-2v-6l-5 2-3 3-8 3h-17l-6-3-5-5-3-5-1-4v-8l4-10 8-7 9-4 25-4-2-9-4-5-4-2h-17l-11 3-2-6 1-4 13-4zm12 38-14 3-9 4-4 5-1 7 3 8 6 4h9l9-4 5-6 2-8v-8l-1-4z" fill="#076B75"/>
<path transform="translate(865,1023)" d="m0 0h14l1 1v41l2 13 3 6 4 3 4 1h7l7-3 5-4 3-6 1-52h14v75h-10l-2-3v-5l-5 3-5 4-8 2h-15l-7-3-5-4-6-12-1-6z" fill="#066B74"/>
<path transform="translate(985,1021)" d="m0 0h10l11 4 7 8 4 10v55h-13l-1-40-1-13-3-6-4-4-11-2-9 3-5 6-3 8-1 48h-13l-1-75 1-1h11l1 10 8-6 7-4z" fill="#066B74"/>
<path transform="translate(449,866)" d="m0 0h13l3 3 13 37 6 16 2 1 12-36 7-20 14-1 1 2-12 29-14 37-9 19-8 11-9 8-10 4-3-3-2-4 1-4 11-7 8-9 4-8-3-11-17-43-8-19z" fill="#066B74"/>
<path transform="translate(231,866)" d="m0 0h12l1 1 1 51 3 8 7 5 8 1 8-3 8-8 1-3 1-52h12l1 1v74l-6 1-4-1-1-8-14 8-6 2h-12l-9-4-5-5-4-6-2-7-1-31v-23z" fill="#086C75"/>
<path transform="translate(1067,1021)" d="m0 0h14l11 2 2 1-1 6-2 5-9-2h-14l-10 5-6 7-3 9v14l4 10 5 5 4 3 7 2h14l9-2 1 9-1 2-7 2h-24l-9-3-10-9-7-14-1-5v-12l3-11 4-8 6-7 9-6z" fill="#086B75"/>
<path transform="translate(196,864)" d="m0 0 16 2 2 2-1 10-12-2h-9l-11 4-8 9-3 9v11l2 8 4 7 8 6 10 2 12-1 4-2h3l2 7-5 5-6 2h-19l-10-3-6-4-8-9-5-12-1-6v-8l3-13 6-10 9-8 9-4z" fill="#086C75"/>
<path transform="translate(618,1021)" d="m0 0 16 2 5 2-1 6-3 4-8-2h-12l-5 3-3 5 1 5 5 4 16 8 8 7 4 8v10l-5 8-8 7-3 1h-21l-9-2-3-3 2-9 10 3 5 1h10l6-4 2-2v-8l-5-6-16-8-8-6-4-8v-8l4-9 7-6 5-2z" fill="#076B75"/>
<path transform="translate(96 1e3)" d="m0 0 2 1v12l-1 5h18l2 1 1 9-1 1h-19v39l2 13 1 2 3 1 12 1 1 9-1 1h-20l-6-4-4-6-2-9v-47h-11l-1-1v-8l1-1h11v-14z" fill="#096C76"/>
<path transform="translate(419,848)" d="m0 0 3 1v17h19l2 6-1 4-20 1v45l2 7 7 3 8 1 1 3-2 6-3 1h-9l-8-2-7-8-2-11-1-45-11-1v-10h11l1-14z" fill="#076B75"/>
<path transform="translate(1147,987)" d="m0 0h11l1 1v110h-12l-1-1v-109z" fill="#096D76"/>
<path transform="translate(1116,876)" d="m0 0h16l10 3 8 6 6 8 3 9v14l-4 11-9 10-12 6h-18l-10-4-8-7-6-10-2-6v-14l7-14 9-8zm3 6-9 4-7 7-3 7-1 5v11l3 8 8 9 5 3 5 1h8l10-3 8-7 4-7 1-5v-11l-4-11-7-7-10-4z" fill="#0F7079"/>
<path transform="translate(344,865)" d="m0 0h11v11l-1 1-10 2-6 3-4 5-2 4-2 50h-12l-1-1v-74h11v12l5-3 6-7z" fill="#046A73"/>
<path transform="translate(490,1021)" d="m0 0h5l1 1v11l-14 4-5 4-3 6-1 5-1 45-1 1h-12l-1-1v-74l2-1 10 1 1 12 4-4 4-6 7-3z" fill="#076B75"/>
<path transform="translate(1109,1023)" d="m0 0h14l1 5-1 70h-13l-1-2z" fill="#10707A"/>
<path transform="translate(369,867)" d="m0 0h12l1 1v73h-12l-1-11z" fill="#046973"/>
<path transform="translate(1116,892)" d="m0 0h18l5 4 1 2v6l-3 5v5l3 6v5l-2 2h-5l-4-10-3-2h-5l-2 12-4 1-3-3v-30zm5 6-1 1v7l2 2h6l3-3v-5l-3-2z" fill="#207A83"/>
<path transform="translate(372,835)" d="m0 0h7l5 4 1 6-3 5-3 2-8-1-4-6v-5z" fill="#0D6F78"/>
<path transform="translate(1111,992)" d="m0 0h10l4 5-1 8-4 3h-8l-4-4v-9z" fill="#086C75"/>
</svg>
