<?xml version="1.0" encoding="UTF-8"?><svg id="a" xmlns="http://www.w3.org/2000/svg" viewBox="0 0 260 260"><defs><style>.b{fill:#f16724;}.c{fill:#cb4827;}</style></defs><path class="b" d="M223.97,34.06H55.46c-10.24,0-18.46,8.34-18.46,18.46v150.41c0,10.24,8.34,18.46,18.46,18.46h57.28v-61.45h53.71v-61.81h57.52V34.06Z"/><path class="c" d="M46.53,98.13h119.92v25.01s-22.86-24.65-119.92-24.65v-.36Z"/><path class="c" d="M46.53,159.94h66.21v13.58s-19.05-12.5-66.21-13.22v-.36Z"/><path class="c" d="M181.12,209.14c0,9.22-2.54,16.33-7.62,21.32-5.08,4.99-12.22,7.48-21.41,7.48h-17.88v-55.26h19.13c8.87,0,15.72,2.27,20.54,6.8,4.83,4.54,7.24,11.09,7.24,19.66ZM165.62,209.67c0-5.07-1-8.82-3.01-11.26-2-2.44-5.05-3.67-9.13-3.67h-4.35v30.96h3.33c4.54,0,7.86-1.32,9.98-3.95,2.12-2.63,3.18-6.66,3.18-12.08Z"/><path class="c" d="M235,237.94h-17.27l-10.77-17.27-10.66,17.27h-16.9l18.33-28.27-17.24-26.99h16.56l9.98,17.09,9.6-17.09h17.05l-17.5,28.16,18.82,27.1Z"/></svg>