<?xml version="1.0" encoding="UTF-8"?>
<svg version="1.1" viewBox="0 0 900 900" width="900" height="900" xmlns="http://www.w3.org/2000/svg">
<path transform="translate(266,258)" d="m0 0h208l13 2 13 1 16 3 20 6 17 7 17 9 14 10 14 12 11 12 9 13 9 15 4 10 5 13 4 17 2 10 1 11v32l-2 17-3 14-5 17-7 15-6 11-10 14-10 11-5 5-10 9-13 9-10 6-11 6-13 5-20 7-30 6-28 2-90 1v141l-2 1h-103l-1-1v-478zm105 98-1 1v141l1 1h92l15-2 12-4 12-6 6-4 10-9 9-13 4-9 3-12v-27l-4-14-3-7-9-13-8-7-9-6-15-6-13-3-14-1z" fill="#212741"/>
<path transform="translate(266,162)" d="m0 0h375l2 6v48l-3 3h-374l-2-1v-55z" fill="#F15B2C"/>
<path transform="translate(147,37)" d="m0 0h612l16 4 17 6 11 6 14 9 15 13 9 11 4 5 10 18 4 9 5 15 2 9 1 10v598l-3 17-4 14-7 15-6 10-10 14-15 15-11 8-13 8-13 6-9 3-12 3-7 1-18 1h-572l-17-1-20-4-10-4-12-5-11-7-6-4-13-11-7-7-4-5-10-14-8-15-5-14-4-16-1-11v-593l1-11 4-16 5-14 6-12 6-9 6-8 4-5h2l2-4 5-5h2l1-3h2v-2l10-7 9-6 12-6 18-6zm1 3-16 4-17 6-16 9-13 10-5 5-7 6-10 13-11 19-7 18-3 14-1 12v589l2 16 3 12 6 16 9 16 11 14 13 13 13 10 24 12 8 3 14 3 9 1 585 1 23-2 15-4 13-5 17-9 14-11 15-15 10-14 8-14 2-6 4-11 3-13 1-12v-591l-1-12-4-16-4-9-2-7-5-8-4-7-8-11-4-5h-2l-2-4-4-2-1-3-9-7h-2v-2l-17-10-12-5-8-3-10-2-7-2z" fill="#B9B9BB"/>
<path transform="translate(370,354)" d="m0 0h87l19 2 14 4 5 2v1l-7-1-15-4-14-1h-88v141h92l15-2 12-4 12-6 4-1-4 4-13 6-9 3-18 3h-91l-2-1v-145z" fill="#B6B6B8"/>
</svg>
