<?xml version="1.0" encoding="UTF-8"?> <svg xmlns="http://www.w3.org/2000/svg" id="Layer_2" data-name="Layer 2" viewBox="0 0 291.48 70.54"><defs><style> .cls-1 { fill: #fff; } .cls-1, .cls-2 { stroke-width: 0px; } .cls-2 { fill: #0098ff; } </style></defs><g id="Layer_1-2" data-name="Layer 1"><g><g><path class="cls-1" d="m70.56,15.65h-15.94v21.5h5.08v-6.12h10.86c5.99,0,9.29-2.74,9.29-7.7s-3.3-7.67-9.29-7.67Zm.3,10.6h-11.16v-5.82h11.16c2.6,0,3.82.92,3.82,2.89s-1.21,2.92-3.82,2.92Z"></path><path class="cls-1" d="m100.86,15.21c-8.84,0-14.33,4.29-14.33,11.2s5.49,11.2,14.33,11.2,14.33-4.29,14.33-11.2-5.49-11.2-14.33-11.2Zm0,17.61c-5.82,0-9.16-2.34-9.16-6.42s3.34-6.42,9.16-6.42,9.16,2.34,9.16,6.42-3.34,6.42-9.16,6.42Z"></path><polygon class="cls-1" points="138.11 28.08 127.69 15.65 122.77 15.65 122.77 37.15 127.85 37.15 127.85 24.9 127.78 22.75 136.6 33.27 139.6 33.27 148.44 22.75 148.38 24.91 148.38 37.15 153.46 37.15 153.46 15.65 148.54 15.65 138.11 28.08"></polygon><polygon class="cls-1" points="168.92 28.49 185.31 28.49 185.31 23.71 168.92 23.71 168.92 20.43 187.1 20.43 187.1 15.65 163.84 15.65 163.84 37.15 187.7 37.15 187.7 32.37 168.92 32.37 168.92 28.49"></polygon><path class="cls-1" d="m222.3,22.67c0-4.59-2.89-7.02-8.36-7.02h-16.87v21.5h5.08v-7.46h5.17l8.54,7.46h7.87l-9.17-7.62c5-.16,7.75-2.59,7.75-6.86Zm-8.21,2.24h-11.94v-4.47h11.94c2.73,0,3.04,1.28,3.04,2.24s-.32,2.24-3.04,2.24Z"></path><path class="cls-1" d="m243.61,15.21c-8.84,0-14.33,4.29-14.33,11.2s5.49,11.2,14.33,11.2,14.33-4.29,14.33-11.2-5.49-11.2-14.33-11.2Zm0,4.78c5.82,0,9.16,2.34,9.16,6.42s-3.34,6.42-9.16,6.42-9.16-2.34-9.16-6.42,3.34-6.42,9.16-6.42Z"></path><polygon class="cls-1" points="285.02 15.65 280.57 20.99 276.18 26.51 271.81 20.98 267.33 15.65 260.87 15.65 273.64 30.72 273.64 37.15 278.72 37.15 278.72 30.72 291.48 15.65 285.02 15.65"></polygon></g><path class="cls-2" d="m31.96,22.01c.59-.88.92-1.93.92-3.08.02-2.54-1.55-4.64-3.98-5.36L4.93,7.23c-1.08-.33-1.83-1.33-1.84-2.46V.01h0s-2.96-.01-2.96-.01v4.75s0,.01,0,.02v3.83s0,2.38,0,2.38c0,0,0,0,0,0v6.22c0,2.45,1.64,4.64,3.98,5.33l9.44,2.5-9.36,2.3h-.04C1.77,28,.11,30.19.1,32.66l-.1,25.41h.02s-.02,6.23-.02,6.23h.02s-.02,6.23-.02,6.23h2.96s.1-25.4.1-25.4c0-1.15.77-2.16,1.87-2.48l23.86-5.94h.04c2.44-.7,4.03-2.78,4.05-5.32,0-1.17-.33-2.25-.92-3.15.59-.88.92-1.93.92-3.08,0-1.17-.33-2.25-.92-3.15Zm-8.6,3.08l6.4-1.75c.29.59.41,1.22.41,1.81,0,.57-.13,1.18-.41,1.76l-6.4-1.82Zm4.72-8.67c1.37.41,1.85,1.56,1.84,2.5,0,.38-.09.78-.27,1.16L4.93,13.46c-1.08-.33-1.84-1.34-1.84-2.47v-1.33s25,6.77,25,6.77Zm-23.16,3.26c-1.09-.33-1.84-1.35-1.84-2.48v-1.32s22.54,6.12,22.54,6.12l-6.14,1.54-14.57-3.85Zm0,10.51l14.54-3.6,6.16,1.63-22.58,5.78v-1.33c0-1.15.78-2.16,1.88-2.48Zm23.12,3.65l-25,6.39v-1.33c0-1.15.78-2.16,1.88-2.48l24.72-6.25c.19.39.27.81.27,1.2,0,.94-.5,2.08-1.87,2.47Z"></path></g></g></svg> 