<svg width="903" height="157" viewBox="0 0 903 157" fill="none" xmlns="http://www.w3.org/2000/svg">
<path d="M318.982 154.065H302.044V15.2304H226.128V0.052002H394.897V15.2304H318.982V154.065Z" fill="black"/>
<path d="M441.277 154.065H424.339V0.052002H441.277V154.065Z" fill="black"/>
<path d="M567.49 156.27C515.339 156.27 490.05 128.987 490.05 86.7356V0.052002H506.988V84.5539C506.988 122.629 529.65 141.092 565.285 141.092H569.696C605.12 141.092 628.016 122.606 628.016 84.5539V0.052002H644.954V86.7356C644.954 128.987 619.641 156.27 567.514 156.27H567.49Z" fill="black"/>
<path d="M798.076 139.332L873.546 0.052002H902.144V154.065H885.206V13.2598L808.844 154.089H787.05L710.712 13.9167V154.089H693.774V0.052002H722.372L798.053 139.332H798.076Z" fill="black"/>
<path d="M197.954 0.052002L129.264 68.0148H105.804L174.635 0.052002H197.954Z" fill="#FD8D02"/>
<path d="M201.262 154.088H176.841L105.57 83.287H129.874L201.262 154.088Z" fill="#FD8D02"/>
<path d="M4.24707 0.615012L72.9371 68.5544H96.3968L27.566 0.615012H4.24707Z" fill="#04BAB8"/>
<path d="M0.939453 154.651H25.361L96.6082 83.8266H72.3039L0.939453 154.651Z" fill="#04BAB8"/>
</svg>
